<svg width="57" height="56" viewBox="0 0 57 56" fill="none" xmlns="http://www.w3.org/2000/svg">
<g clip-path="url(#clip0_74_2359)">
<path d="M10.7507 4.51369e-06H46.9173C48.2199 -0.0012547 49.51 0.260965 50.7137 0.771657C51.9174 1.28235 53.0111 2.03149 53.9322 2.9762C54.8533 3.92091 55.5837 5.04264 56.0816 6.2772C56.5795 7.51177 56.8352 8.83492 56.834 10.1709V45.8291C56.8352 47.1651 56.5795 48.4882 56.0816 49.7228C55.5837 50.9574 54.8533 52.0791 53.9322 53.0238C53.0111 53.9685 51.9174 54.7177 50.7137 55.2283C49.51 55.739 48.2199 56.0013 46.9173 56H10.7507C9.44803 56.0013 8.15796 55.739 6.95426 55.2283C5.75056 54.7177 4.65687 53.9685 3.73577 53.0238C2.81468 52.0791 2.08427 50.9574 1.58635 49.7228C1.08843 48.4882 0.832761 47.1651 0.833989 45.8291V10.1709C0.832761 8.83492 1.08843 7.51177 1.58635 6.2772C2.08427 5.04264 2.81468 3.92091 3.73577 2.9762C4.65687 2.03149 5.75056 1.28235 6.95426 0.771657C8.15796 0.260965 9.44803 -0.0012547 10.7507 4.51369e-06Z" fill="#000B1D"/>
<g clip-path="url(#clip1_74_2359)">
<path d="M28.8346 31.7023C30.9848 31.7023 32.7278 29.9818 32.7278 27.8594C32.7278 25.7371 30.9848 24.0166 28.8346 24.0166C26.6845 24.0166 24.9414 25.7371 24.9414 27.8594C24.9414 29.9818 26.6845 31.7023 28.8346 31.7023Z" fill="#61DAFB"/>
<path fill-rule="evenodd" clip-rule="evenodd" d="M10.1946 25.4624C9.25003 26.3041 8.8532 27.1159 8.8532 27.8602C8.8532 28.6046 9.25003 29.4164 10.1946 30.2581C11.1392 31.0997 12.557 31.8988 14.3865 32.5883C18.0391 33.9649 23.1467 34.8352 28.8336 34.8352C34.5205 34.8352 39.6281 33.9649 43.2808 32.5883C45.1103 31.8988 46.5281 31.0997 47.4726 30.2581C48.4172 29.4164 48.8141 28.6046 48.8141 27.8602C48.8141 27.1159 48.4172 26.3041 47.4726 25.4624C46.5281 24.6208 45.1103 23.8217 43.2808 23.1322C39.6281 21.7556 34.5205 20.8853 28.8336 20.8853C23.1467 20.8853 18.0391 21.7556 14.3865 23.1322C12.557 23.8217 11.1392 24.6208 10.1946 25.4624ZM13.7373 21.4539C17.6454 19.981 22.9831 19.0889 28.8336 19.0889C34.6842 19.0889 40.0218 19.981 43.93 21.4539C45.881 22.1892 47.5225 23.0867 48.6922 24.1289C49.8618 25.1711 50.6341 26.4305 50.6341 27.8602C50.6341 29.29 49.8618 30.5494 48.6922 31.5916C47.5225 32.6338 45.881 33.5313 43.93 34.2665C40.0218 35.7394 34.6842 36.6316 28.8336 36.6316C22.9831 36.6316 17.6454 35.7394 13.7373 34.2665C11.7863 33.5313 10.1448 32.6338 8.9751 31.5916C7.80549 30.5494 7.0332 29.29 7.0332 27.8602C7.0332 26.4305 7.80549 25.1711 8.9751 24.1289C10.1448 23.0867 11.7863 22.1892 13.7373 21.4539Z" fill="#61DAFB"/>
<path fill-rule="evenodd" clip-rule="evenodd" d="M21.6176 10.7281C20.4069 10.3415 19.4962 10.4082 18.8431 10.7803C18.19 11.1525 17.6762 11.8976 17.41 13.1259C17.1439 14.3541 17.1517 15.9657 17.4615 17.8743C18.08 21.685 19.8702 26.4862 22.7137 31.3475C25.5571 36.2088 28.8745 40.1397 31.9086 42.5738C33.4283 43.7929 34.8383 44.6053 36.049 44.9919C37.2598 45.3786 38.1705 45.3119 38.8235 44.9397C39.4766 44.5675 39.9904 43.8224 40.2566 42.5941C40.5228 41.3659 40.515 39.7543 40.2052 37.8457C39.5866 34.035 37.7964 29.2338 34.953 24.3726C32.1095 19.5113 28.7921 15.5803 25.758 13.1463C24.2383 11.9271 22.8283 11.1147 21.6176 10.7281ZM26.9059 11.7522C30.1523 14.3565 33.6038 18.4731 36.5291 23.4743C39.4544 28.4755 41.3404 33.4843 42.0022 37.5615C42.3326 39.5969 42.366 41.4488 42.0364 42.9698C41.7068 44.4907 40.988 45.7806 39.7335 46.4955C38.4791 47.2104 36.988 47.1799 35.4888 46.7012C33.9895 46.2224 32.3814 45.2679 30.7608 43.9678C27.5144 41.3635 24.0628 37.2469 21.1375 32.2457C18.2122 27.2445 16.3262 22.2357 15.6644 18.1585C15.334 16.1231 15.3007 14.2712 15.6303 12.7502C15.9598 11.2293 16.6787 9.93944 17.9331 9.22455C19.1875 8.50967 20.6787 8.54014 22.1778 9.01887C23.6771 9.49763 25.2853 10.4521 26.9059 11.7522Z" fill="#61DAFB"/>
<path fill-rule="evenodd" clip-rule="evenodd" d="M40.257 13.1261C39.9908 11.8977 39.477 11.1526 38.8239 10.7804C38.1708 10.4083 37.2601 10.3416 36.0494 10.7282C34.8387 11.1148 33.4287 11.9273 31.909 13.1464C28.8749 15.5805 25.5575 19.5114 22.714 24.3727C19.8706 29.2339 18.0804 34.0352 17.4618 37.8459C17.152 39.7545 17.1442 41.366 17.4104 42.5942C17.6765 43.8225 18.1904 44.5676 18.8435 44.9398C19.4965 45.312 20.4072 45.3787 21.618 44.992C22.8286 44.6054 24.2387 43.793 25.7583 42.5739C28.7925 40.1398 32.1099 36.2089 34.9533 31.3476C37.7968 26.4863 39.587 21.6851 40.2055 17.8744C40.5153 15.9658 40.5231 14.3542 40.257 13.1261ZM42.0026 18.1586C41.3408 22.2358 39.4548 27.2446 36.5295 32.2458C33.6042 37.247 30.1526 41.3636 26.9062 43.968C25.2856 45.268 23.6775 46.2225 22.1782 46.7013C20.679 47.18 19.1879 47.2105 17.9335 46.4956C16.679 45.7807 15.9602 44.4908 15.6306 42.9699C15.301 41.4489 15.3344 39.597 15.6647 37.5617C16.3265 33.4844 18.2126 28.4756 21.1379 23.4744C24.0632 18.4733 27.5147 14.3566 30.7611 11.7523C32.3817 10.4522 33.9898 9.49774 35.4892 9.01898C36.9883 8.54026 38.4794 8.50978 39.7339 9.22466C40.9883 9.93955 41.7071 11.2294 42.0367 12.7503C42.3663 14.2713 42.333 16.1232 42.0026 18.1586Z" fill="#61DAFB"/>
</g>
</g>
<defs>
<clipPath id="clip0_74_2359">
<rect width="56" height="56" fill="white" transform="translate(0.833984)"/>
</clipPath>
<clipPath id="clip1_74_2359">
<rect width="43.68" height="38.36" fill="white" transform="translate(6.99414 8.67969)"/>
</clipPath>
</defs>
</svg>
