<svg width="56" height="56" viewBox="0 0 56 56" fill="none" xmlns="http://www.w3.org/2000/svg">
<g clip-path="url(#clip0_234_2281)">
<path d="M9.91667 4.51369e-06H46.0833C47.386 -0.0012547 48.676 0.260965 49.8797 0.771657C51.0834 1.28235 52.1771 2.03149 53.0982 2.9762C54.0193 3.92091 54.7497 5.04264 55.2476 6.2772C55.7456 7.51177 56.0012 8.83492 56 10.1709V45.8291C56.0012 47.1651 55.7456 48.4882 55.2476 49.7228C54.7497 50.9574 54.0193 52.0791 53.0982 53.0238C52.1771 53.9685 51.0834 54.7177 49.8797 55.2283C48.676 55.739 47.386 56.0013 46.0833 56H9.91667C8.61405 56.0013 7.32397 55.739 6.12027 55.2283C4.91657 54.7177 3.82288 53.9685 2.90179 53.0238C1.9807 52.0791 1.25029 50.9574 0.752365 49.7228C0.254441 48.4882 -0.00122333 47.1651 4.40084e-06 45.8291V10.1709C-0.00122333 8.83492 0.254441 7.51177 0.752365 6.2772C1.25029 5.04264 1.9807 3.92091 2.90179 2.9762C3.82288 2.03149 4.91657 1.28235 6.12027 0.771657C7.32397 0.260965 8.61405 -0.0012547 9.91667 4.51369e-06Z" fill="#4536B2"/>
<g filter="url(#filter0_d_234_2281)">
<path d="M29.5179 42.8869C35.9842 42.8869 39.8809 39.7083 39.8809 34.4656C39.8809 30.5026 37.1005 27.6336 32.9722 27.1794V27.0143C36.0053 26.5189 38.3854 23.6912 38.3854 20.5332C38.3854 16.0336 34.8469 13.1025 29.4547 13.1025H17.3223V42.8869H29.5179ZM22.0404 16.8798H28.3173C31.7295 16.8798 33.6673 18.4072 33.6673 21.173C33.6673 24.1247 31.4136 25.7758 27.3273 25.7758H22.0404V16.8798ZM22.0404 39.1097V29.3055H28.2751C32.7404 29.3055 35.0574 30.9567 35.0574 34.1767C35.0574 37.3965 32.8037 39.1097 28.5489 39.1097H22.0404Z" fill="white"/>
<path d="M29.5179 42.8869C35.9842 42.8869 39.8809 39.7083 39.8809 34.4656C39.8809 30.5026 37.1005 27.6336 32.9722 27.1794V27.0143C36.0053 26.5189 38.3854 23.6912 38.3854 20.5332C38.3854 16.0336 34.8469 13.1025 29.4547 13.1025H17.3223V42.8869H29.5179ZM22.0404 16.8798H28.3173C31.7295 16.8798 33.6673 18.4072 33.6673 21.173C33.6673 24.1247 31.4136 25.7758 27.3273 25.7758H22.0404V16.8798ZM22.0404 39.1097V29.3055H28.2751C32.7404 29.3055 35.0574 30.9567 35.0574 34.1767C35.0574 37.3965 32.8037 39.1097 28.5489 39.1097H22.0404Z" stroke="white"/>
</g>
</g>
<defs>
<filter id="filter0_d_234_2281" x="0.822266" y="0.602539" width="55.5586" height="62.7842" filterUnits="userSpaceOnUse" color-interpolation-filters="sRGB">
<feFlood flood-opacity="0" result="BackgroundImageFix"/>
<feColorMatrix in="SourceAlpha" type="matrix" values="0 0 0 0 0 0 0 0 0 0 0 0 0 0 0 0 0 0 127 0" result="hardAlpha"/>
<feOffset dy="4"/>
<feGaussianBlur stdDeviation="8"/>
<feColorMatrix type="matrix" values="0 0 0 0 0 0 0 0 0 0 0 0 0 0 0 0 0 0 0.15 0"/>
<feBlend mode="normal" in2="BackgroundImageFix" result="effect1_dropShadow_234_2281"/>
<feBlend mode="normal" in="SourceGraphic" in2="effect1_dropShadow_234_2281" result="shape"/>
</filter>
<clipPath id="clip0_234_2281">
<rect width="56" height="56" fill="white"/>
</clipPath>
</defs>
</svg>
