<svg width="57" height="56" viewBox="0 0 57 56" fill="none" xmlns="http://www.w3.org/2000/svg">
<path d="M10.2497 4.51369e-06H46.4163C47.719 -0.0012547 49.009 0.260965 50.2127 0.771657C51.4164 1.28235 52.5101 2.03149 53.4312 2.9762C54.3523 3.92091 55.0827 5.04264 55.5806 6.2772C56.0786 7.51177 56.3342 8.83492 56.333 10.1709V45.8291C56.3342 47.1651 56.0786 48.4882 55.5806 49.7228C55.0827 50.9574 54.3523 52.0791 53.4312 53.0238C52.5101 53.9685 51.4164 54.7177 50.2127 55.2283C49.009 55.739 47.719 56.0013 46.4163 56H10.2497C8.94706 56.0013 7.65698 55.739 6.45328 55.2283C5.24958 54.7177 4.15589 53.9685 3.2348 53.0238C2.31371 52.0791 1.5833 50.9574 1.08537 49.7228C0.587449 48.4882 0.331784 47.1651 0.333012 45.8291V10.1709C0.331784 8.83492 0.587449 7.51177 1.08537 6.2772C1.5833 5.04264 2.31371 3.92091 3.2348 2.9762C4.15589 2.03149 5.24958 1.28235 6.45328 0.771657C7.65698 0.260965 8.94706 -0.0012547 10.2497 4.51369e-06Z" fill="#4536B2"/>
<path d="M46.3791 12.7725L38.3763 8.91927C37.4499 8.47326 36.3429 8.6614 35.6159 9.38838L9.41763 33.2751C8.71296 33.9175 8.71377 35.027 9.41938 35.6684L11.5593 37.6139C12.1362 38.1383 13.005 38.1769 13.6261 37.7057L45.1749 13.7721C46.2333 12.9692 47.7535 13.7241 47.7535 15.0526V14.9597C47.7535 14.0271 47.2193 13.177 46.3791 12.7725Z" fill="white"/>
<g filter="url(#filter0_d_234_2302)">
<path d="M46.3791 43.2261L38.3763 47.0793C37.4499 47.5254 36.3429 47.3372 35.6159 46.6102L9.41763 22.7236C8.71296 22.0811 8.71377 20.9716 9.41938 20.3302L11.5593 18.3847C12.1362 17.8603 13.005 17.8217 13.6261 18.2929L45.1749 42.2265C46.2333 43.0294 47.7535 42.2745 47.7535 40.946V41.0389C47.7535 41.9715 47.2193 42.8216 46.3791 43.2261Z" fill="white"/>
</g>
<g filter="url(#filter1_d_234_2302)">
<path d="M38.3769 47.0805C37.4503 47.5263 36.3433 47.3377 35.6162 46.6106C36.512 47.5065 38.0437 46.872 38.0437 45.6051V10.3942C38.0437 9.12738 36.512 8.49292 35.6162 9.38873C36.3433 8.66169 37.4503 8.47328 38.3769 8.9189L46.3783 12.7668C47.2191 13.1712 47.7538 14.0216 47.7538 14.9545V41.045C47.7538 41.978 47.2191 42.8284 46.3783 43.2327L38.3769 47.0805Z" fill="white"/>
</g>
<g style="mix-blend-mode:overlay" opacity="0.25">
<path style="mix-blend-mode:overlay" fill-rule="evenodd" clip-rule="evenodd" d="M36.432 47.1546C37.0437 47.3929 37.7413 47.3776 38.3587 47.0805L46.3553 43.2327C47.1955 42.8284 47.7299 41.978 47.7299 41.045V14.9545C47.7299 14.0215 47.1956 13.1711 46.3553 12.7668L38.3587 8.9189C37.5484 8.52899 36.6001 8.62449 35.8889 9.14152C35.7873 9.21539 35.6905 9.29785 35.5997 9.38873L20.2912 23.3549L13.6232 18.2933C13.0025 17.8221 12.1342 17.8608 11.5577 18.3852L9.41905 20.3306C8.71388 20.9721 8.71307 22.0815 9.41731 22.724L15.2001 27.9997L9.41731 33.2754C8.71307 33.9179 8.71388 35.0273 9.41905 35.6688L11.5577 37.6142C12.1342 38.1386 13.0025 38.1772 13.6232 37.7061L20.2912 32.6444L35.5997 46.6107C35.8419 46.8529 36.1262 47.0354 36.432 47.1546ZM38.0257 19.1825L26.4101 27.9997L38.0257 36.8169V19.1825Z" fill="url(#paint0_linear_234_2302)"/>
</g>
<defs>
<filter id="filter0_d_234_2302" x="0.556309" y="9.63053" width="55.5309" height="46.0221" filterUnits="userSpaceOnUse" color-interpolation-filters="sRGB">
<feFlood flood-opacity="0" result="BackgroundImageFix"/>
<feColorMatrix in="SourceAlpha" type="matrix" values="0 0 0 0 0 0 0 0 0 0 0 0 0 0 0 0 0 0 127 0" result="hardAlpha"/>
<feOffset/>
<feGaussianBlur stdDeviation="4.16667"/>
<feColorMatrix type="matrix" values="0 0 0 0 0 0 0 0 0 0 0 0 0 0 0 0 0 0 0.25 0"/>
<feBlend mode="overlay" in2="BackgroundImageFix" result="effect1_dropShadow_234_2302"/>
<feBlend mode="normal" in="SourceGraphic" in2="effect1_dropShadow_234_2302" result="shape"/>
</filter>
<filter id="filter1_d_234_2302" x="27.2829" y="0.346348" width="28.8044" height="55.3063" filterUnits="userSpaceOnUse" color-interpolation-filters="sRGB">
<feFlood flood-opacity="0" result="BackgroundImageFix"/>
<feColorMatrix in="SourceAlpha" type="matrix" values="0 0 0 0 0 0 0 0 0 0 0 0 0 0 0 0 0 0 127 0" result="hardAlpha"/>
<feOffset/>
<feGaussianBlur stdDeviation="4.16667"/>
<feColorMatrix type="matrix" values="0 0 0 0 0 0 0 0 0 0 0 0 0 0 0 0 0 0 0.25 0"/>
<feBlend mode="overlay" in2="BackgroundImageFix" result="effect1_dropShadow_234_2302"/>
<feBlend mode="normal" in="SourceGraphic" in2="effect1_dropShadow_234_2302" result="shape"/>
</filter>
<linearGradient id="paint0_linear_234_2302" x1="28.3098" y1="8.67969" x2="28.3098" y2="47.3197" gradientUnits="userSpaceOnUse">
<stop stop-color="white"/>
<stop offset="1" stop-color="white" stop-opacity="0"/>
</linearGradient>
</defs>
</svg>
