<svg width="57" height="56" viewBox="0 0 57 56" fill="none" xmlns="http://www.w3.org/2000/svg">
<path d="M46.866 0H10.466C5.05363 0 0.666016 4.38761 0.666016 9.8V46.2C0.666016 51.6124 5.05363 56 10.466 56H46.866C52.2784 56 56.666 51.6124 56.666 46.2V9.8C56.666 4.38761 52.2784 0 46.866 0Z" fill="#2E0501"/>
<path d="M29.1305 34.1935H20.7044L18.5979 40.5878C18.5737 40.7827 18.4405 40.8801 18.1984 40.8801H14.3848C14.1427 40.8801 14.058 40.7583 14.1306 40.5147L21.685 18.8106C21.8545 18.4452 21.9635 17.7631 22.0119 16.7644C22.0119 16.6182 22.0966 16.5451 22.2661 16.5451H27.4961C27.6172 16.5451 27.714 16.606 27.7867 16.7278L36.2127 40.5513C36.2854 40.7705 36.2127 40.8801 35.9948 40.8801H31.7091C31.5397 40.8801 31.4186 40.7949 31.3459 40.6243L29.1305 34.1935ZM21.6487 30.6492H28.1862C28.0893 30.3082 27.5809 28.7613 26.6608 26.0087C25.7649 23.2318 25.1717 21.3317 24.8811 20.3087H24.8448C24.5542 21.551 23.4889 24.9978 21.6487 30.6492Z" fill="#F2A032"/>
<path d="M38.4676 40.5513V23.3779C38.4676 23.1831 38.5645 23.0856 38.7582 23.0856H42.7896C42.9833 23.0856 43.0802 23.1831 43.0802 23.3779V40.5878C43.0802 40.7827 42.9833 40.8801 42.7896 40.8801H38.7945C38.5766 40.8801 38.4676 40.7705 38.4676 40.5513ZM42.5717 19.3952C42.1359 19.8336 41.5427 20.0529 40.7921 20.0529C40.0415 20.0529 39.4483 19.8336 39.0124 19.3952C38.5766 18.9567 38.3587 18.3599 38.3587 17.6048C38.3587 16.874 38.5887 16.2772 39.0488 15.8144C39.5088 15.3515 40.102 15.1201 40.8284 15.1201C41.5548 15.1201 42.1359 15.3515 42.5717 15.8144C43.0076 16.2772 43.2255 16.874 43.2255 17.6048C43.2255 18.3599 43.0076 18.9567 42.5717 19.3952Z" fill="#F2A032"/>
</svg>
