<svg width="57" height="56" viewBox="0 0 57 56" fill="none" xmlns="http://www.w3.org/2000/svg">
<g clip-path="url(#clip0_234_2290)">
<path d="M10.5837 4.51369e-06H46.7503C48.0529 -0.0012547 49.343 0.260965 50.5467 0.771657C51.7504 1.28235 52.8441 2.03149 53.7652 2.9762C54.6863 3.92091 55.4167 5.04264 55.9146 6.2772C56.4126 7.51177 56.6682 8.83492 56.667 10.1709V45.8291C56.6682 47.1651 56.4126 48.4882 55.9146 49.7228C55.4167 50.9574 54.6863 52.0791 53.7652 53.0238C52.8441 53.9685 51.7504 54.7177 50.5467 55.2283C49.343 55.739 48.0529 56.0013 46.7503 56H10.5837C9.28104 56.0013 7.99097 55.739 6.78727 55.2283C5.58357 54.7177 4.48987 53.9685 3.56878 53.0238C2.64769 52.0791 1.91728 50.9574 1.41936 49.7228C0.921433 48.4882 0.665769 47.1651 0.666997 45.8291V10.1709C0.665769 8.83492 0.921433 7.51177 1.41936 6.2772C1.91728 5.04264 2.64769 3.92091 3.56878 2.9762C4.48987 2.03149 5.58357 1.28235 6.78727 0.771657C7.99097 0.260965 9.28104 -0.0012547 10.5837 4.51369e-06Z" fill="#4536B2"/>
<path d="M29.7957 16.9413L22.7957 28.4913L30.2623 40.7413C30.3115 40.8258 30.3281 40.9254 30.309 41.0213C30.2857 41.1146 30.1923 41.0446 30.0523 41.0679H24.709C24.3357 41.0679 24.079 41.0446 23.9157 40.8113C23.4257 39.8313 22.9123 38.8746 22.4223 37.8946C21.9323 36.9146 21.3957 35.9579 20.8357 34.9546C20.2757 33.9513 19.7157 32.9479 19.1557 31.9213H19.109C18.619 32.9246 18.0823 33.9279 17.5457 34.9313C17.009 35.9346 16.4723 36.9379 15.959 37.9179C15.4457 38.8979 14.8857 39.9013 14.349 40.8579C14.2557 41.0913 14.069 41.1146 13.8123 41.1146H8.67901C8.58568 41.1146 8.51568 41.1613 8.51568 41.0446C8.50526 41.0009 8.50403 40.9555 8.51207 40.9114C8.5201 40.8672 8.53722 40.8251 8.56234 40.7879L15.819 28.8879L8.74901 16.9179C8.67901 16.8246 8.65568 16.7313 8.70234 16.6846C8.73079 16.6513 8.76688 16.6255 8.80752 16.6092C8.84816 16.5929 8.89214 16.5868 8.93568 16.5913H14.2323C14.3427 16.5937 14.4524 16.6093 14.559 16.6379C14.6525 16.6882 14.7325 16.7602 14.7923 16.8479C15.2357 17.8513 15.749 18.8546 16.2857 19.8579C16.8223 20.8613 17.3823 21.8413 17.9657 22.8213C18.549 23.8013 19.039 24.7813 19.529 25.7846H19.5757C20.0657 24.7579 20.579 23.7546 21.0923 22.7746C21.6057 21.7946 22.1423 20.8146 22.679 19.8346C23.2157 18.8546 23.729 17.8513 24.2423 16.8946C24.26 16.8027 24.3096 16.7201 24.3823 16.6613C24.4747 16.6103 24.5822 16.5937 24.6857 16.6146H29.609C29.6366 16.6084 29.6651 16.6077 29.693 16.6126C29.7208 16.6174 29.7474 16.6278 29.7713 16.6429C29.7951 16.6581 29.8157 16.6779 29.8319 16.701C29.8481 16.7242 29.8596 16.7503 29.8657 16.7779C29.889 16.8013 29.8423 16.8946 29.7957 16.9413Z" fill="white"/>
<path d="M40.5752 41.5581C38.8456 41.5865 37.1316 41.2278 35.5585 40.5081C34.095 39.8238 32.8684 38.719 32.0352 37.3348C31.1719 35.9115 30.7519 34.1381 30.7519 32.0148C30.7282 30.288 31.1716 28.587 32.0352 27.0915C32.9207 25.5715 34.2032 24.3213 35.7452 23.4748C37.3785 22.5648 39.3385 22.1215 41.6485 22.1215C41.8122 22.1196 41.9758 22.1274 42.1385 22.1448C42.3485 22.1681 42.5819 22.1681 42.8619 22.1915V14.8181C42.8619 14.6548 42.9319 14.5615 43.0952 14.5615H47.8319C47.8842 14.5544 47.9372 14.5673 47.9805 14.5975C48.0237 14.6278 48.054 14.6732 48.0652 14.7248V36.9848C48.0652 37.4048 48.0885 37.8715 48.1119 38.3848C48.1352 38.8981 48.1819 39.3415 48.2052 39.7381C48.2102 39.8169 48.1903 39.8953 48.1485 39.9623C48.1067 40.0292 48.0449 40.0814 47.9719 40.1115C46.7497 40.6251 45.474 41.0008 44.1685 41.2315C42.9826 41.4453 41.7802 41.5546 40.5752 41.5581ZM42.8619 36.8915V26.6248C42.6541 26.5747 42.4438 26.5357 42.2319 26.5081C41.9752 26.4848 41.7185 26.4615 41.4619 26.4615C40.5472 26.4512 39.6434 26.6591 38.8252 27.0681C38.0279 27.4654 37.3452 28.0598 36.8419 28.7948C36.3285 29.5415 36.0719 30.5448 36.0719 31.7581C36.0515 32.5771 36.1861 33.3925 36.4685 34.1615C36.6942 34.7833 37.0525 35.3486 37.5185 35.8181C37.9684 36.2474 38.5114 36.5669 39.1052 36.7515C39.7302 36.9562 40.3842 37.0586 41.0419 37.0548C41.3919 37.0548 41.7185 37.0315 42.0219 37.0081C42.307 37.0285 42.5931 36.9887 42.8619 36.8915Z" fill="white"/>
</g>
<defs>
<clipPath id="clip0_234_2290">
<rect width="56" height="56" fill="white" transform="translate(0.666992)"/>
</clipPath>
</defs>
</svg>
