<svg width="56" height="56" viewBox="0 0 56 56" fill="none" xmlns="http://www.w3.org/2000/svg">
<g clip-path="url(#clip0_74_2380)">
<path d="M9.91667 4.51369e-06H46.0833C47.386 -0.0012547 48.676 0.260965 49.8797 0.771657C51.0834 1.28235 52.1771 2.03149 53.0982 2.9762C54.0193 3.92091 54.7497 5.04264 55.2476 6.2772C55.7456 7.51177 56.0012 8.83492 56 10.1709V45.8291C56.0012 47.1651 55.7456 48.4882 55.2476 49.7228C54.7497 50.9574 54.0193 52.0791 53.0982 53.0238C52.1771 53.9685 51.0834 54.7177 49.8797 55.2283C48.676 55.739 47.386 56.0013 46.0833 56H9.91667C8.61405 56.0013 7.32397 55.739 6.12027 55.2283C4.91657 54.7177 3.82288 53.9685 2.90179 53.0238C1.9807 52.0791 1.25029 50.9574 0.752365 49.7228C0.254441 48.4882 -0.00122333 47.1651 4.40084e-06 45.8291V10.1709C-0.00122333 8.83492 0.254441 7.51177 0.752365 6.2772C1.25029 5.04264 1.9807 3.92091 2.90179 2.9762C3.82288 2.03149 4.91657 1.28235 6.12027 0.771657C7.32397 0.260965 8.61405 -0.0012547 9.91667 4.51369e-06Z" fill="#F0F0F0"/>
<path fill-rule="evenodd" clip-rule="evenodd" d="M28.5251 6.71973C16.5931 6.71973 6.94727 16.473 6.94727 28.5392C6.94727 38.1843 13.1277 46.3487 21.7016 49.2383C22.7735 49.4556 23.1662 48.7688 23.1662 48.1912C23.1662 47.6853 23.1309 45.9515 23.1309 44.1449C17.1284 45.4456 15.8785 41.5439 15.8785 41.5439C14.9138 39.0151 13.4846 38.3652 13.4846 38.3652C11.52 37.0285 13.6277 37.0285 13.6277 37.0285C15.8069 37.1731 16.9504 39.2682 16.9504 39.2682C18.8793 42.5915 21.9874 41.6525 23.2378 41.0744C23.4162 39.6655 23.9882 38.6901 24.5955 38.1484C19.8081 37.6425 14.7712 35.7641 14.7712 27.383C14.7712 24.9987 15.628 23.0481 16.9858 21.531C16.7716 20.9892 16.0211 18.7491 17.2004 15.7508C17.2004 15.7508 19.0224 15.1727 23.1304 17.9905C24.8892 17.5129 26.7031 17.27 28.5251 17.2679C30.347 17.2679 32.2043 17.5211 33.9193 17.9905C38.0279 15.1727 39.8498 15.7508 39.8498 15.7508C41.0291 18.7491 40.2782 20.9892 40.064 21.531C41.4575 23.0481 42.279 24.9987 42.279 27.383C42.279 35.7641 37.2421 37.6062 32.419 38.1484C33.2051 38.8347 33.8836 40.135 33.8836 42.1942C33.8836 45.1202 33.8482 47.4685 33.8482 48.1907C33.8482 48.7688 34.2413 49.4556 35.3128 49.2388C43.8867 46.3482 50.0672 38.1843 50.0672 28.5392C50.1025 16.473 40.4213 6.71973 28.5251 6.71973Z" fill="#24292F"/>
</g>
<defs>
<clipPath id="clip0_74_2380">
<rect width="56" height="56" fill="white"/>
</clipPath>
</defs>
</svg>
