<svg width="57" height="56" viewBox="0 0 57 56" fill="none" xmlns="http://www.w3.org/2000/svg">
<g clip-path="url(#clip0_234_2305)">
<path d="M10.2497 4.51369e-06H46.4163C47.719 -0.0012547 49.009 0.260965 50.2127 0.771657C51.4164 1.28235 52.5101 2.03149 53.4312 2.9762C54.3523 3.92091 55.0827 5.04264 55.5806 6.2772C56.0786 7.51177 56.3342 8.83492 56.333 10.1709V45.8291C56.3342 47.1651 56.0786 48.4882 55.5806 49.7228C55.0827 50.9574 54.3523 52.0791 53.4312 53.0238C52.5101 53.9685 51.4164 54.7177 50.2127 55.2283C49.009 55.739 47.719 56.0013 46.4163 56H10.2497C8.94706 56.0013 7.65698 55.739 6.45328 55.2283C5.24958 54.7177 4.15589 53.9685 3.2348 53.0238C2.31371 52.0791 1.5833 50.9574 1.08537 49.7228C0.587449 48.4882 0.331784 47.1651 0.333012 45.8291V10.1709C0.331784 8.83492 0.587449 7.51177 1.08537 6.2772C1.5833 5.04264 2.31371 3.92091 3.2348 2.9762C4.15589 2.03149 5.24958 1.28235 6.45328 0.771657C7.65698 0.260965 8.94706 -0.0012547 10.2497 4.51369e-06Z" fill="#4536B2"/>
<path d="M15.6674 15.3221C16.8954 16.3197 17.3561 16.2435 19.6619 16.0897L41.4004 14.7844C41.8613 14.7844 41.4779 14.3245 41.3244 14.248L37.7139 11.6381C37.0222 11.101 36.1004 10.486 34.3342 10.6398L13.2848 12.1751C12.5172 12.2512 12.3638 12.635 12.6696 12.9427L15.6674 15.3221ZM16.9726 20.3882V43.2609C16.9726 44.49 17.5869 44.95 18.9695 44.874L42.86 43.4916C44.2433 43.4156 44.3974 42.5698 44.3974 41.5714V18.8522C44.3974 17.8553 44.014 17.3176 43.1671 17.3944L18.2012 18.8522C17.2799 18.9297 16.9726 19.3905 16.9726 20.3882ZM40.5573 21.6151C40.7105 22.3066 40.5573 22.9975 39.8645 23.0752L38.7134 23.3045V40.1905C37.7139 40.7277 36.7924 41.0348 36.0244 41.0348C34.7948 41.0348 34.4869 40.6508 33.5659 39.5L26.0364 27.6797V39.1164L28.419 39.6539C28.419 39.6539 28.419 41.0348 26.4968 41.0348L21.1975 41.3421C21.0435 41.0348 21.1975 40.268 21.735 40.1142L23.1179 39.7311V24.6099L21.1978 24.456C21.0438 23.7645 21.4273 22.7675 22.5036 22.6901L28.1885 22.3069L36.0244 34.2811V23.6883L34.0266 23.459C33.8732 22.6137 34.4869 21.9998 35.2552 21.9237L40.5573 21.6151ZM11.5174 10.1028L33.4122 8.49043C36.101 8.25982 36.7927 8.41429 38.4827 9.64187L45.4715 14.5541C46.6249 15.3988 47.0092 15.6288 47.0092 16.5497V43.4916C47.0092 45.1799 46.3942 46.1786 44.2435 46.3312L18.8174 47.8669C17.203 47.9438 16.4347 47.7136 15.5893 46.6383L10.4425 39.9606C9.52023 38.7315 9.13672 37.8118 9.13672 36.7359V12.7882C9.13672 11.4074 9.75196 10.2557 11.5174 10.1028Z" fill="white"/>
</g>
<defs>
<clipPath id="clip0_234_2305">
<rect width="56" height="56" fill="white" transform="translate(0.333008)"/>
</clipPath>
</defs>
</svg>
