<svg width="57" height="56" viewBox="0 0 57 56" fill="none" xmlns="http://www.w3.org/2000/svg">
<g clip-path="url(#clip0_74_2377)">
<path d="M10.7507 4.51369e-06H46.9173C48.2199 -0.0012547 49.51 0.260965 50.7137 0.771657C51.9174 1.28235 53.0111 2.03149 53.9322 2.9762C54.8533 3.92091 55.5837 5.04264 56.0816 6.2772C56.5795 7.51177 56.8352 8.83492 56.834 10.1709V45.8291C56.8352 47.1651 56.5795 48.4882 56.0816 49.7228C55.5837 50.9574 54.8533 52.0791 53.9322 53.0238C53.0111 53.9685 51.9174 54.7177 50.7137 55.2283C49.51 55.739 48.2199 56.0013 46.9173 56H10.7507C9.44803 56.0013 8.15796 55.739 6.95426 55.2283C5.75056 54.7177 4.65687 53.9685 3.73577 53.0238C2.81468 52.0791 2.08427 50.9574 1.58635 49.7228C1.08843 48.4882 0.832761 47.1651 0.833989 45.8291V10.1709C0.832761 8.83492 1.08843 7.51177 1.58635 6.2772C2.08427 5.04264 2.81468 3.92091 3.73577 2.9762C4.65687 2.03149 5.75056 1.28235 6.95426 0.771657C8.15796 0.260965 9.44803 -0.0012547 10.7507 4.51369e-06Z" fill="#000B1D"/>
<path d="M16.1694 15.3221C17.3974 16.3197 17.858 16.2435 20.1638 16.0897L41.9024 14.7844C42.3633 14.7844 41.9799 14.3245 41.8263 14.248L38.2158 11.6381C37.5242 11.101 36.6024 10.486 34.8361 10.6398L13.7868 12.1751C13.0191 12.2512 12.8658 12.635 13.1715 12.9427L16.1694 15.3221ZM17.4745 20.3882V43.2609C17.4745 44.49 18.0888 44.95 19.4714 44.874L43.3619 43.4916C44.7452 43.4156 44.8993 42.5698 44.8993 41.5714V18.8522C44.8993 17.8553 44.5159 17.3176 43.669 17.3944L18.7031 18.8522C17.7818 18.9297 17.4745 19.3905 17.4745 20.3882ZM41.0592 21.6151C41.2125 22.3066 41.0592 22.9975 40.3664 23.0752L39.2154 23.3045V40.1905C38.2158 40.7277 37.2943 41.0348 36.5264 41.0348C35.2968 41.0348 34.9888 40.6508 34.0678 39.5L26.5384 27.6797V39.1164L28.921 39.6539C28.921 39.6539 28.921 41.0348 26.9987 41.0348L21.6994 41.3421C21.5455 41.0348 21.6994 40.268 22.2369 40.1142L23.6198 39.7311V24.6099L21.6998 24.456C21.5458 23.7645 21.9293 22.7675 23.0055 22.6901L28.6905 22.3069L36.5264 34.2811V23.6883L34.5285 23.459C34.3751 22.6137 34.9888 21.9998 35.7571 21.9237L41.0592 21.6151ZM12.0194 10.1028L33.9142 8.49043C36.603 8.25982 37.2946 8.41429 38.9846 9.64187L45.9735 14.5541C47.1269 15.3988 47.5111 15.6288 47.5111 16.5497V43.4916C47.5111 45.1799 46.8961 46.1786 44.7455 46.3312L19.3193 47.8669C17.705 47.9438 16.9367 47.7136 16.0913 46.6383L10.9444 39.9606C10.0222 38.7315 9.63867 37.8118 9.63867 36.7359V12.7882C9.63867 11.4074 10.2539 10.2557 12.0194 10.1028Z" fill="white"/>
</g>
<defs>
<clipPath id="clip0_74_2377">
<rect width="56" height="56" fill="white" transform="translate(0.833984)"/>
</clipPath>
</defs>
</svg>
