<svg width="57" height="56" viewBox="0 0 57 56" fill="none" xmlns="http://www.w3.org/2000/svg">
<g clip-path="url(#clip0_74_2353)">
<path d="M10.4167 4.51369e-06H46.5833C47.886 -0.0012547 49.176 0.260965 50.3797 0.771657C51.5834 1.28235 52.6771 2.03149 53.5982 2.9762C54.5193 3.92091 55.2497 5.04264 55.7476 6.2772C56.2456 7.51177 56.5012 8.83492 56.5 10.1709V45.8291C56.5012 47.1651 56.2456 48.4882 55.7476 49.7228C55.2497 50.9574 54.5193 52.0791 53.5982 53.0238C52.6771 53.9685 51.5834 54.7177 50.3797 55.2283C49.176 55.739 47.886 56.0013 46.5833 56H10.4167C9.11405 56.0013 7.82397 55.739 6.62027 55.2283C5.41657 54.7177 4.32288 53.9685 3.40179 53.0238C2.4807 52.0791 1.75029 50.9574 1.25237 49.7228C0.754441 48.4882 0.498777 47.1651 0.500004 45.8291V10.1709C0.498777 8.83492 0.754441 7.51177 1.25237 6.2772C1.75029 5.04264 2.4807 3.92091 3.40179 2.9762C4.32288 2.03149 5.41657 1.28235 6.62027 0.771657C7.82397 0.260965 9.11405 -0.0012547 10.4167 4.51369e-06Z" fill="#F7DF1E"/>
<path d="M38.2127 43.8182C39.3407 45.66 40.8083 47.0138 43.4038 47.0138C45.5843 47.0138 46.9772 45.924 46.9772 44.4182C46.9772 42.6138 45.5461 41.9747 43.1461 40.9249L41.8305 40.3605C38.0332 38.7427 35.5105 36.716 35.5105 32.4316C35.5105 28.4849 38.5176 25.4805 43.2172 25.4805C46.563 25.4805 48.9683 26.6449 50.7016 29.6938L46.6038 32.3249C45.7016 30.7071 44.7283 30.0698 43.2172 30.0698C41.6758 30.0698 40.699 31.0476 40.699 32.3249C40.699 33.9036 41.6767 34.5427 43.9345 35.5205L45.2501 36.084C49.7212 38.0014 52.2456 39.956 52.2456 44.3507C52.2456 49.0885 48.5238 51.684 43.5256 51.684C38.6385 51.684 35.4812 49.3551 33.9363 46.3027L38.2127 43.8182ZM19.6234 44.2742C20.4501 45.7409 21.2021 46.9809 23.0101 46.9809C24.739 46.9809 25.8296 46.3045 25.8296 43.6742V25.7809H31.0918V43.7454C31.0918 49.1942 27.8972 51.6742 23.2341 51.6742C19.0207 51.6742 16.5807 49.4938 15.3398 46.8676L19.6234 44.2742Z" fill="#1E1E1E"/>
</g>
<defs>
<clipPath id="clip0_74_2353">
<rect width="56" height="56" fill="white" transform="translate(0.5)"/>
</clipPath>
</defs>
</svg>
