<svg width="57" height="56" viewBox="0 0 57 56" fill="none" xmlns="http://www.w3.org/2000/svg">
<g clip-path="url(#clip0_234_2287)">
<path d="M10.5837 4.51369e-06H46.7503C48.0529 -0.0012547 49.343 0.260965 50.5467 0.771657C51.7504 1.28235 52.8441 2.03149 53.7652 2.9762C54.6863 3.92091 55.4167 5.04264 55.9146 6.2772C56.4126 7.51177 56.6682 8.83492 56.667 10.1709V45.8291C56.6682 47.1651 56.4126 48.4882 55.9146 49.7228C55.4167 50.9574 54.6863 52.0791 53.7652 53.0238C52.8441 53.9685 51.7504 54.7177 50.5467 55.2283C49.343 55.739 48.0529 56.0013 46.7503 56H10.5837C9.28104 56.0013 7.99097 55.739 6.78727 55.2283C5.58357 54.7177 4.48987 53.9685 3.56878 53.0238C2.64769 52.0791 1.91728 50.9574 1.41936 49.7228C0.921433 48.4882 0.665769 47.1651 0.666997 45.8291V10.1709C0.665769 8.83492 0.921433 7.51177 1.41936 6.2772C1.91728 5.04264 2.64769 3.92091 3.56878 2.9762C4.48987 2.03149 5.58357 1.28235 6.78727 0.771657C7.99097 0.260965 9.28104 -0.0012547 10.5837 4.51369e-06Z" fill="#4536B2"/>
<path d="M23.3001 45.0798C26.5218 45.0798 29.1335 42.4681 29.1335 39.2464V33.4131H23.3001C20.0785 33.4131 17.4668 36.0248 17.4668 39.2464C17.4668 42.4681 20.0785 45.0798 23.3001 45.0798Z" fill="white"/>
<path d="M17.4668 27.5804C17.4668 24.3587 20.0785 21.7471 23.3001 21.7471H29.1335V33.4137H23.3001C20.0785 33.4137 17.4668 30.8021 17.4668 27.5804Z" fill="white"/>
<path d="M17.4668 15.9134C17.4668 12.6917 20.0785 10.0801 23.3001 10.0801H29.1335V21.7467H23.3001C20.0785 21.7467 17.4668 19.1351 17.4668 15.9134Z" fill="white"/>
<path d="M29.1338 10.0801H34.9671C38.1888 10.0801 40.8005 12.6917 40.8005 15.9134C40.8005 19.1351 38.1888 21.7467 34.9671 21.7467H29.1338V10.0801Z" fill="white"/>
<path d="M40.8005 27.5804C40.8005 30.8021 38.1888 33.4137 34.9671 33.4137C31.7455 33.4137 29.1338 30.8021 29.1338 27.5804C29.1338 24.3587 31.7455 21.7471 34.9671 21.7471C38.1888 21.7471 40.8005 24.3587 40.8005 27.5804Z" fill="white"/>
</g>
<defs>
<clipPath id="clip0_234_2287">
<rect width="56" height="56" fill="white" transform="translate(0.666992)"/>
</clipPath>
</defs>
</svg>
