<svg width="56" height="56" viewBox="0 0 56 56" fill="none" xmlns="http://www.w3.org/2000/svg">
<g clip-path="url(#clip0_74_2344)">
<path d="M9.91667 4.51369e-06H46.0833C47.386 -0.0012547 48.676 0.260965 49.8797 0.771657C51.0834 1.28235 52.1771 2.03149 53.0982 2.9762C54.0193 3.92091 54.7497 5.04264 55.2476 6.2772C55.7456 7.51177 56.0012 8.83492 56 10.1709V45.8291C56.0012 47.1651 55.7456 48.4882 55.2476 49.7228C54.7497 50.9574 54.0193 52.0791 53.0982 53.0238C52.1771 53.9685 51.0834 54.7177 49.8797 55.2283C48.676 55.739 47.386 56.0013 46.0833 56H9.91667C8.61405 56.0013 7.32397 55.739 6.12027 55.2283C4.91657 54.7177 3.82288 53.9685 2.90179 53.0238C1.9807 52.0791 1.25029 50.9574 0.752365 49.7228C0.254441 48.4882 -0.00122333 47.1651 4.40084e-06 45.8291V10.1709C-0.00122333 8.83492 0.254441 7.51177 0.752365 6.2772C1.25029 5.04264 1.9807 3.92091 2.90179 2.9762C3.82288 2.03149 4.91657 1.28235 6.12027 0.771657C7.32397 0.260965 8.61405 -0.0012547 9.91667 4.51369e-06Z" fill="white"/>
<path d="M43.4452 10.6396L40.6351 42.12L28.0035 45.6218L15.4068 42.1248L12.5996 10.6396H43.4452Z" fill="#E44D26"/>
<path d="M28.0234 42.945L38.2304 40.1153L40.6317 13.2139H28.0234V42.945Z" fill="#F16529"/>
<path d="M22.56 20.9377H28.0227V17.0762H18.3398L18.4322 18.1121L19.3814 28.7535H28.0227V24.892H22.9129L22.56 20.9377ZM23.4303 30.6843H19.5539L20.0949 36.7475L28.005 38.9433L28.0227 38.9384V34.9208L28.0058 34.9253L23.7053 33.764L23.4303 30.6843Z" fill="#EBEBEB"/>
<path d="M28.0099 28.7535H32.7649L32.3166 33.7616L28.0098 34.9241V38.9414L35.9262 36.7475L35.9842 36.0951L36.8918 25.9289L36.9859 24.892H28.0099V28.7535ZM28.0099 20.9283V20.9377H37.3373L37.4147 20.0698L37.5907 18.1121L37.683 17.0762H28.0099V20.9284V20.9283Z" fill="white"/>
</g>
<defs>
<clipPath id="clip0_74_2344">
<rect width="56" height="56" fill="white"/>
</clipPath>
</defs>
</svg>
