<svg width="57" height="56" viewBox="0 0 57 56" fill="none" xmlns="http://www.w3.org/2000/svg">
<path d="M10.2507 4.51369e-06H46.4173C47.7199 -0.0012547 49.01 0.260965 50.2137 0.771657C51.4174 1.28235 52.5111 2.03149 53.4322 2.9762C54.3533 3.92091 55.0837 5.04264 55.5816 6.2772C56.0795 7.51177 56.3352 8.83492 56.334 10.1709V45.8291C56.3352 47.1651 56.0795 48.4882 55.5816 49.7228C55.0837 50.9574 54.3533 52.0791 53.4322 53.0238C52.5111 53.9685 51.4174 54.7177 50.2137 55.2283C49.01 55.739 47.7199 56.0013 46.4173 56H10.2507C8.94803 56.0013 7.65796 55.739 6.45426 55.2283C5.25056 54.7177 4.15687 53.9685 3.23577 53.0238C2.31468 52.0791 1.58427 50.9574 1.08635 49.7228C0.588425 48.4882 0.332761 47.1651 0.333989 45.8291V10.1709C0.332761 8.83492 0.588425 7.51177 1.08635 6.2772C1.58427 5.04264 2.31468 3.92091 3.23577 2.9762C4.15687 2.03149 5.25056 1.28235 6.45426 0.771657C7.65796 0.260965 8.94803 -0.0012547 10.2507 4.51369e-06Z" fill="#000B1D"/>
<path d="M46.3801 12.7725L38.3773 8.91927C37.4509 8.47326 36.3439 8.6614 35.6169 9.38838L9.4186 33.2751C8.71394 33.9175 8.71475 35.027 9.42035 35.6684L11.5603 37.6139C12.1372 38.1383 13.0059 38.1769 13.627 37.7057L45.1758 13.7721C46.2343 12.9692 47.7545 13.7241 47.7545 15.0526V14.9597C47.7545 14.0271 47.2203 13.177 46.3801 12.7725Z" fill="#0065A9"/>
<g filter="url(#filter0_d_74_2368)">
<path d="M46.3801 43.2261L38.3773 47.0793C37.4509 47.5254 36.3439 47.3372 35.6169 46.6102L9.4186 22.7236C8.71394 22.0811 8.71475 20.9716 9.42035 20.3302L11.5603 18.3847C12.1372 17.8603 13.0059 17.8217 13.627 18.2929L45.1758 42.2265C46.2343 43.0294 47.7545 42.2745 47.7545 40.946V41.0389C47.7545 41.9715 47.2203 42.8216 46.3801 43.2261Z" fill="#007ACC"/>
</g>
<g filter="url(#filter1_d_74_2368)">
<path d="M38.3779 47.0805C37.4513 47.5263 36.3442 47.3377 35.6172 46.6106C36.513 47.5065 38.0447 46.872 38.0447 45.6051V10.3942C38.0447 9.12738 36.513 8.49292 35.6172 9.38873C36.3442 8.66169 37.4513 8.47328 38.3779 8.9189L46.3793 12.7668C47.2201 13.1712 47.7548 14.0216 47.7548 14.9545V41.045C47.7548 41.978 47.2201 42.8284 46.3793 43.2327L38.3779 47.0805Z" fill="#1F9CF0"/>
</g>
<g style="mix-blend-mode:overlay" opacity="0.25">
<path style="mix-blend-mode:overlay" fill-rule="evenodd" clip-rule="evenodd" d="M36.433 47.1546C37.0447 47.3929 37.7423 47.3776 38.3597 47.0805L46.3562 43.2327C47.1965 42.8284 47.7309 41.978 47.7309 41.045V14.9545C47.7309 14.0215 47.1966 13.1711 46.3563 12.7668L38.3597 8.9189C37.5494 8.52899 36.601 8.62449 35.8898 9.14152C35.7883 9.21539 35.6915 9.29785 35.6007 9.38873L20.2922 23.3549L13.6242 18.2933C13.0035 17.8221 12.1352 17.8608 11.5587 18.3852L9.42003 20.3306C8.71485 20.9721 8.71404 22.0815 9.41828 22.724L15.201 27.9997L9.41828 33.2754C8.71404 33.9179 8.71485 35.0273 9.42003 35.6688L11.5587 37.6142C12.1352 38.1386 13.0035 38.1772 13.6242 37.7061L20.2922 32.6444L35.6007 46.6107C35.8428 46.8529 36.1272 47.0354 36.433 47.1546ZM38.0267 19.1825L26.4111 27.9997L38.0267 36.8169V19.1825Z" fill="url(#paint0_linear_74_2368)"/>
</g>
<defs>
<filter id="filter0_d_74_2368" x="0.557285" y="9.63053" width="55.53" height="46.0221" filterUnits="userSpaceOnUse" color-interpolation-filters="sRGB">
<feFlood flood-opacity="0" result="BackgroundImageFix"/>
<feColorMatrix in="SourceAlpha" type="matrix" values="0 0 0 0 0 0 0 0 0 0 0 0 0 0 0 0 0 0 127 0" result="hardAlpha"/>
<feOffset/>
<feGaussianBlur stdDeviation="4.16667"/>
<feColorMatrix type="matrix" values="0 0 0 0 0 0 0 0 0 0 0 0 0 0 0 0 0 0 0.25 0"/>
<feBlend mode="overlay" in2="BackgroundImageFix" result="effect1_dropShadow_74_2368"/>
<feBlend mode="normal" in="SourceGraphic" in2="effect1_dropShadow_74_2368" result="shape"/>
</filter>
<filter id="filter1_d_74_2368" x="27.2838" y="0.346348" width="28.8034" height="55.3063" filterUnits="userSpaceOnUse" color-interpolation-filters="sRGB">
<feFlood flood-opacity="0" result="BackgroundImageFix"/>
<feColorMatrix in="SourceAlpha" type="matrix" values="0 0 0 0 0 0 0 0 0 0 0 0 0 0 0 0 0 0 127 0" result="hardAlpha"/>
<feOffset/>
<feGaussianBlur stdDeviation="4.16667"/>
<feColorMatrix type="matrix" values="0 0 0 0 0 0 0 0 0 0 0 0 0 0 0 0 0 0 0.25 0"/>
<feBlend mode="overlay" in2="BackgroundImageFix" result="effect1_dropShadow_74_2368"/>
<feBlend mode="normal" in="SourceGraphic" in2="effect1_dropShadow_74_2368" result="shape"/>
</filter>
<linearGradient id="paint0_linear_74_2368" x1="28.3107" y1="8.67969" x2="28.3107" y2="47.3197" gradientUnits="userSpaceOnUse">
<stop stop-color="white"/>
<stop offset="1" stop-color="white" stop-opacity="0"/>
</linearGradient>
</defs>
</svg>
