<svg width="56" height="56" viewBox="0 0 56 56" fill="none" xmlns="http://www.w3.org/2000/svg">
<g clip-path="url(#clip0_234_2272)">
<path d="M9.91667 4.51369e-06H46.0833C47.386 -0.0012547 48.676 0.260965 49.8797 0.771657C51.0834 1.28235 52.1771 2.03149 53.0982 2.9762C54.0193 3.92091 54.7497 5.04264 55.2476 6.2772C55.7456 7.51177 56.0012 8.83492 56 10.1709V45.8291C56.0012 47.1651 55.7456 48.4882 55.2476 49.7228C54.7497 50.9574 54.0193 52.0791 53.0982 53.0238C52.1771 53.9685 51.0834 54.7177 49.8797 55.2283C48.676 55.739 47.386 56.0013 46.0833 56H9.91667C8.61405 56.0013 7.32397 55.739 6.12027 55.2283C4.91657 54.7177 3.82288 53.9685 2.90179 53.0238C1.9807 52.0791 1.25029 50.9574 0.752365 49.7228C0.254441 48.4882 -0.00122333 47.1651 4.40084e-06 45.8291V10.1709C-0.00122333 8.83492 0.254441 7.51177 0.752365 6.2772C1.25029 5.04264 1.9807 3.92091 2.90179 2.9762C3.82288 2.03149 4.91657 1.28235 6.12027 0.771657C7.32397 0.260965 8.61405 -0.0012547 9.91667 4.51369e-06Z" fill="#4536B2"/>
<path d="M28.0031 45.621L15.4067 42.1241L12.5996 10.6396H43.4444L40.6344 42.1192L28.0031 45.621Z" fill="white"/>
<path d="M38.2291 40.1147L40.6304 13.2139H28.0225V42.9443L38.2291 40.1147Z" fill="white"/>
<path d="M19.0353 24.8918L19.3813 28.7532H28.0225V24.8918H19.0353ZM18.3398 17.0762L18.6908 20.9376H28.0225V17.0762H18.3398ZM28.0225 34.9204L28.0056 34.9248L23.7051 33.7636L23.4302 30.684H19.5539L20.0948 36.747L28.0047 38.9427L28.0225 38.9379V34.9204Z" fill="#4536B2"/>
<path d="M36.9847 24.8918L37.6818 17.0762H28.0089V20.9376H33.45L33.0986 24.8918H28.0089V28.7532H32.7639L32.3155 33.7612L28.0088 34.9236V38.9409L35.925 36.747L35.983 36.0946L36.8906 25.9287L36.9847 24.8918Z" fill="#4536B2"/>
</g>
<defs>
<clipPath id="clip0_234_2272">
<rect width="56" height="56" fill="white"/>
</clipPath>
</defs>
</svg>
