<svg width="56" height="56" viewBox="0 0 56 56" fill="none" xmlns="http://www.w3.org/2000/svg">
<g clip-path="url(#clip0_234_2275)">
<path d="M9.91667 4.51369e-06H46.0833C47.386 -0.0012547 48.676 0.260965 49.8797 0.771657C51.0834 1.28235 52.1771 2.03149 53.0982 2.9762C54.0193 3.92091 54.7497 5.04264 55.2476 6.2772C55.7456 7.51177 56.0012 8.83492 56 10.1709V45.8291C56.0012 47.1651 55.7456 48.4882 55.2476 49.7228C54.7497 50.9574 54.0193 52.0791 53.0982 53.0238C52.1771 53.9685 51.0834 54.7177 49.8797 55.2283C48.676 55.739 47.386 56.0013 46.0833 56H9.91667C8.61405 56.0013 7.32397 55.739 6.12027 55.2283C4.91657 54.7177 3.82288 53.9685 2.90179 53.0238C1.9807 52.0791 1.25029 50.9574 0.752365 49.7228C0.254441 48.4882 -0.00122333 47.1651 4.40084e-06 45.8291V10.1709C-0.00122333 8.83492 0.254441 7.51177 0.752365 6.2772C1.25029 5.04264 1.9807 3.92091 2.90179 2.9762C3.82288 2.03149 4.91657 1.28235 6.12027 0.771657C7.32397 0.260965 8.61405 -0.0012547 9.91667 4.51369e-06Z" fill="#4536B2"/>
<path d="M37.7127 43.8182C38.8407 45.66 40.3083 47.0138 42.9038 47.0138C45.0843 47.0138 46.4772 45.924 46.4772 44.4182C46.4772 42.6138 45.0461 41.9747 42.6461 40.9249L41.3305 40.3605C37.5332 38.7427 35.0105 36.716 35.0105 32.4316C35.0105 28.4849 38.0176 25.4805 42.7172 25.4805C46.063 25.4805 48.4683 26.6449 50.2016 29.6938L46.1038 32.3249C45.2016 30.7071 44.2283 30.0698 42.7172 30.0698C41.1758 30.0698 40.199 31.0476 40.199 32.3249C40.199 33.9036 41.1767 34.5427 43.4345 35.5205L44.7501 36.084C49.2212 38.0014 51.7456 39.956 51.7456 44.3507C51.7456 49.0885 48.0238 51.684 43.0256 51.684C38.1385 51.684 34.9812 49.3551 33.4363 46.3027L37.7127 43.8182ZM19.1234 44.2742C19.9501 45.7409 20.7021 46.9809 22.5101 46.9809C24.239 46.9809 25.3296 46.3045 25.3296 43.6742V25.7809H30.5918V43.7454C30.5918 49.1942 27.3972 51.6742 22.7341 51.6742C18.5207 51.6742 16.0807 49.4938 14.8398 46.8676L19.1234 44.2742Z" fill="white"/>
</g>
<defs>
<clipPath id="clip0_234_2275">
<rect width="56" height="56" fill="white"/>
</clipPath>
</defs>
</svg>
