<svg width="57" height="56" viewBox="0 0 57 56" fill="none" xmlns="http://www.w3.org/2000/svg">
<path d="M46.867 0H10.467C5.0546 0 0.666992 4.38761 0.666992 9.8V46.2C0.666992 51.6124 5.0546 56 10.467 56H46.867C52.2794 56 56.667 51.6124 56.667 46.2V9.8C56.667 4.38761 52.2794 0 46.867 0Z" fill="#4536B2"/>
<path d="M29.1324 34.1935H20.7064L18.5998 40.5878C18.5756 40.7827 18.4425 40.8801 18.2003 40.8801H14.3868C14.1447 40.8801 14.0599 40.7583 14.1326 40.5147L21.687 18.8106C21.8565 18.4452 21.9654 17.7631 22.0138 16.7644C22.0138 16.6182 22.0986 16.5451 22.2681 16.5451H27.4981C27.6191 16.5451 27.716 16.606 27.7886 16.7278L36.2147 40.5513C36.2873 40.7705 36.2147 40.8801 35.9968 40.8801H31.7111C31.5416 40.8801 31.4205 40.7949 31.3479 40.6243L29.1324 34.1935ZM21.6507 30.6492H28.1881C28.0913 30.3082 27.5828 28.7613 26.6627 26.0087C25.7668 23.2318 25.1736 21.3317 24.8831 20.3087H24.8468C24.5562 21.551 23.4908 24.9978 21.6507 30.6492Z" fill="white"/>
<path d="M38.4696 40.5513V23.3779C38.4696 23.1831 38.5665 23.0856 38.7602 23.0856H42.7916C42.9853 23.0856 43.0821 23.1831 43.0821 23.3779V40.5878C43.0821 40.7827 42.9853 40.8801 42.7916 40.8801H38.7965C38.5786 40.8801 38.4696 40.7705 38.4696 40.5513ZM42.5737 19.3952C42.1378 19.8336 41.5446 20.0529 40.794 20.0529C40.0434 20.0529 39.4502 19.8336 39.0144 19.3952C38.5786 18.9567 38.3606 18.3599 38.3606 17.6048C38.3606 16.874 38.5907 16.2772 39.0507 15.8144C39.5108 15.3515 40.104 15.1201 40.8304 15.1201C41.5567 15.1201 42.1378 15.3515 42.5737 15.8144C43.0095 16.2772 43.2274 16.874 43.2274 17.6048C43.2274 18.3599 43.0095 18.9567 42.5737 19.3952Z" fill="white"/>
</svg>
