<svg width="57" height="56" viewBox="0 0 57 56" fill="none" xmlns="http://www.w3.org/2000/svg">
<g clip-path="url(#clip0_234_2308)">
<path d="M10.2497 4.51369e-06H46.4163C47.719 -0.0012547 49.009 0.260965 50.2127 0.771657C51.4164 1.28235 52.5101 2.03149 53.4312 2.9762C54.3523 3.92091 55.0827 5.04264 55.5806 6.2772C56.0786 7.51177 56.3342 8.83492 56.333 10.1709V45.8291C56.3342 47.1651 56.0786 48.4882 55.5806 49.7228C55.0827 50.9574 54.3523 52.0791 53.4312 53.0238C52.5101 53.9685 51.4164 54.7177 50.2127 55.2283C49.009 55.739 47.719 56.0013 46.4163 56H10.2497C8.94706 56.0013 7.65698 55.739 6.45328 55.2283C5.24958 54.7177 4.15589 53.9685 3.2348 53.0238C2.31371 52.0791 1.5833 50.9574 1.08537 49.7228C0.587449 48.4882 0.331784 47.1651 0.333012 45.8291V10.1709C0.331784 8.83492 0.587449 7.51177 1.08537 6.2772C1.5833 5.04264 2.31371 3.92091 3.2348 2.9762C4.15589 2.03149 5.24958 1.28235 6.45328 0.771657C7.65698 0.260965 8.94706 -0.0012547 10.2497 4.51369e-06Z" fill="#4536B2"/>
<path fill-rule="evenodd" clip-rule="evenodd" d="M28.8591 6.71973C16.9271 6.71973 7.28125 16.473 7.28125 28.5392C7.28125 38.1843 13.4617 46.3487 22.0356 49.2383C23.1075 49.4556 23.5002 48.7688 23.5002 48.1912C23.5002 47.6853 23.4648 45.9515 23.4648 44.1449C17.4624 45.4456 16.2125 41.5439 16.2125 41.5439C15.2478 39.0151 13.8186 38.3652 13.8186 38.3652C11.854 37.0285 13.9617 37.0285 13.9617 37.0285C16.1409 37.1731 17.2844 39.2682 17.2844 39.2682C19.2132 42.5915 22.3213 41.6525 23.5717 41.0744C23.7502 39.6655 24.3222 38.6901 24.9295 38.1484C20.1421 37.6425 15.1052 35.7641 15.1052 27.383C15.1052 24.9987 15.962 23.0481 17.3198 21.531C17.1055 20.9892 16.3551 18.7491 17.5344 15.7508C17.5344 15.7508 19.3563 15.1727 23.4644 17.9905C25.2232 17.5129 27.037 17.27 28.8591 17.2679C30.681 17.2679 32.5383 17.5211 34.2533 17.9905C38.3618 15.1727 40.1838 15.7508 40.1838 15.7508C41.3631 18.7491 40.6122 20.9892 40.398 21.531C41.7915 23.0481 42.613 24.9987 42.613 27.383C42.613 35.7641 37.5761 37.6062 32.7529 38.1484C33.5391 38.8347 34.2176 40.135 34.2176 42.1942C34.2176 45.1202 34.1822 47.4685 34.1822 48.1907C34.1822 48.7688 34.5753 49.4556 35.6468 49.2388C44.2207 46.3482 50.4011 38.1843 50.4011 28.5392C50.4365 16.473 40.7553 6.71973 28.8591 6.71973Z" fill="white"/>
</g>
<defs>
<clipPath id="clip0_234_2308">
<rect width="56" height="56" fill="white" transform="translate(0.333008)"/>
</clipPath>
</defs>
</svg>
