<svg width="57" height="56" viewBox="0 0 57 56" fill="none" xmlns="http://www.w3.org/2000/svg">
<g clip-path="url(#clip0_74_2347)">
<path d="M10.0827 4.51369e-06H46.2493C47.552 -0.0012547 48.842 0.260965 50.0457 0.771657C51.2494 1.28235 52.3431 2.03149 53.2642 2.9762C54.1853 3.92091 54.9157 5.04264 55.4137 6.2772C55.9116 7.51177 56.1672 8.83492 56.166 10.1709V45.8291C56.1672 47.1651 55.9116 48.4882 55.4137 49.7228C54.9157 50.9574 54.1853 52.0791 53.2642 53.0238C52.3431 53.9685 51.2494 54.7177 50.0457 55.2283C48.842 55.739 47.552 56.0013 46.2493 56H10.0827C8.78007 56.0013 7.48999 55.739 6.28629 55.2283C5.08259 54.7177 3.9889 53.9685 3.06781 53.0238C2.14671 52.0791 1.4163 50.9574 0.918381 49.7228C0.420456 48.4882 0.164792 47.1651 0.16602 45.8291V10.1709C0.164792 8.83492 0.420456 7.51177 0.918381 6.2772C1.4163 5.04264 2.14671 3.92091 3.06781 2.9762C3.9889 2.03149 5.08259 1.28235 6.28629 0.771657C7.48999 0.260965 8.78007 -0.0012547 10.0827 4.51369e-06Z" fill="white"/>
<path d="M28.1692 45.621L15.5727 42.1241L12.7656 10.6396H43.6104L40.8004 42.1192L28.1692 45.621Z" fill="#264DE4"/>
<path d="M38.3942 40.1147L40.7954 13.2139H28.1875V42.9443L38.3942 40.1147Z" fill="#2965F1"/>
<path d="M19.2013 24.8918L19.5474 28.7532H28.1885V24.8918H19.2013ZM18.5059 17.0762L18.8569 20.9376H28.1885V17.0762H18.5059ZM28.1885 34.9204L28.1716 34.9248L23.8711 33.7636L23.5962 30.684H19.7199L20.2608 36.747L28.1707 38.9427L28.1885 38.9379V34.9204Z" fill="#EBEBEB"/>
<path d="M37.1517 24.8918L37.8488 17.0762H28.1759V20.9376H33.617L33.2656 24.8918H28.1759V28.7532H32.9308L32.4825 33.7612L28.1758 34.9236V38.9409L36.092 36.747L36.15 36.0946L37.0576 25.9287L37.1517 24.8918Z" fill="white"/>
</g>
<defs>
<clipPath id="clip0_74_2347">
<rect width="56" height="56" fill="white" transform="translate(0.166016)"/>
</clipPath>
</defs>
</svg>
