<svg width="36" height="25" viewBox="0 0 36 25" fill="none" xmlns="http://www.w3.org/2000/svg">
<path d="M25.4 24.05L22.75 21.05C23.5833 20.6833 24.5167 20.05 25.55 19.15C26.6167 18.25 27.5333 17.2 28.3 16C29.1 14.8 29.5167 13.6167 29.55 12.45C29.2833 12.85 28.7667 13.1833 28 13.45C27.2667 13.7167 26.5 13.85 25.7 13.85C24.2 13.85 22.85 13.3 21.65 12.2C20.4833 11.1 19.9 9.58333 19.9 7.65C19.9 5.28333 20.6167 3.41667 22.05 2.05C23.5167 0.683333 25.35 0 27.55 0C29.7167 0 31.5333 0.766667 33 2.3C34.4667 3.8 35.2 5.96666 35.2 8.8C35.2 11.4 34.7 13.7167 33.7 15.75C32.7 17.75 31.45 19.4333 29.95 20.8C28.45 22.1667 26.9333 23.25 25.4 24.05ZM5.5 24.05L2.85 21.05C3.68333 20.6833 4.61667 20.05 5.65 19.15C6.71667 18.25 7.63333 17.2 8.4 16C9.2 14.8 9.61667 13.6167 9.65 12.45C9.38333 12.85 8.86667 13.1833 8.1 13.45C7.36667 13.7167 6.6 13.85 5.8 13.85C4.3 13.85 2.95 13.3 1.75 12.2C0.583333 11.1 0 9.58333 0 7.65C0 5.28333 0.716667 3.41667 2.15 2.05C3.61667 0.683333 5.45 0 7.65 0C9.81667 0 11.6333 0.766667 13.1 2.3C14.5667 3.8 15.3 5.96666 15.3 8.8C15.3 11.4 14.8 13.7167 13.8 15.75C12.8 17.75 11.55 19.4333 10.05 20.8C8.55 22.1667 7.03333 23.25 5.5 24.05Z" fill="black"/>
</svg>
