<svg width="57" height="56" viewBox="0 0 57 56" fill="none" xmlns="http://www.w3.org/2000/svg">
<g clip-path="url(#clip0_74_2365)">
<path d="M10.0827 4.51369e-06H46.2494C47.552 -0.0012547 48.842 0.260965 50.0457 0.771657C51.2494 1.28235 52.3431 2.03149 53.2642 2.9762C54.1853 3.92091 54.9157 5.04264 55.4137 6.2772C55.9116 7.51177 56.1672 8.83492 56.166 10.1709V45.8291C56.1672 47.1651 55.9116 48.4882 55.4137 49.7228C54.9157 50.9574 54.1853 52.0791 53.2642 53.0238C52.3431 53.9685 51.2494 54.7177 50.0457 55.2283C48.842 55.739 47.552 56.0013 46.2494 56H10.0827C8.78007 56.0013 7.48999 55.739 6.28629 55.2283C5.08259 54.7177 3.9889 53.9685 3.06781 53.0238C2.14671 52.0791 1.41631 50.9574 0.918381 49.7228C0.420456 48.4882 0.164792 47.1651 0.16602 45.8291V10.1709C0.164792 8.83492 0.420456 7.51177 0.918381 6.2772C1.41631 5.04264 2.14671 3.92091 3.06781 2.9762C3.9889 2.03149 5.08259 1.28235 6.28629 0.771657C7.48999 0.260965 8.78007 -0.0012547 10.0827 4.51369e-06Z" fill="#470137"/>
<path d="M29.2947 16.9413L22.2947 28.4913L29.7614 40.7413C29.8105 40.8258 29.8271 40.9254 29.808 41.0213C29.7847 41.1146 29.6914 41.0446 29.5514 41.0679H24.208C23.8347 41.0679 23.578 41.0446 23.4147 40.8113C22.9247 39.8313 22.4114 38.8746 21.9214 37.8946C21.4314 36.9146 20.8947 35.9579 20.3347 34.9546C19.7747 33.9513 19.2147 32.9479 18.6547 31.9213H18.608C18.118 32.9246 17.5814 33.9279 17.0447 34.9313C16.508 35.9346 15.9714 36.9379 15.458 37.9179C14.9447 38.8979 14.3847 39.9013 13.848 40.8579C13.7547 41.0913 13.568 41.1146 13.3114 41.1146H8.17803C8.0847 41.1146 8.0147 41.1613 8.0147 41.0446C8.00429 41.0009 8.00306 40.9555 8.01109 40.9114C8.01912 40.8672 8.03624 40.8251 8.06137 40.7879L15.318 28.8879L8.24803 16.9179C8.17803 16.8246 8.1547 16.7313 8.20137 16.6846C8.22982 16.6513 8.26591 16.6255 8.30655 16.6092C8.34718 16.5929 8.39116 16.5868 8.4347 16.5913H13.7314C13.8417 16.5937 13.9514 16.6093 14.058 16.6379C14.1515 16.6882 14.2315 16.7602 14.2914 16.8479C14.7347 17.8513 15.248 18.8546 15.7847 19.8579C16.3214 20.8613 16.8814 21.8413 17.4647 22.8213C18.048 23.8013 18.538 24.7813 19.028 25.7846H19.0747C19.5647 24.7579 20.078 23.7546 20.5914 22.7746C21.1047 21.7946 21.6414 20.8146 22.178 19.8346C22.7147 18.8546 23.228 17.8513 23.7414 16.8946C23.7591 16.8027 23.8087 16.7201 23.8814 16.6613C23.9738 16.6103 24.0813 16.5937 24.1847 16.6146H29.108C29.1356 16.6084 29.1641 16.6077 29.192 16.6126C29.2198 16.6174 29.2465 16.6278 29.2703 16.6429C29.2941 16.6581 29.3148 16.6779 29.331 16.701C29.3472 16.7242 29.3586 16.7503 29.3647 16.7779C29.388 16.8013 29.3414 16.8946 29.2947 16.9413Z" fill="#FF61F6"/>
<path d="M40.0742 41.5581C38.3446 41.5865 36.6306 41.2278 35.0576 40.5081C33.594 39.8238 32.3675 38.719 31.5342 37.3348C30.6709 35.9115 30.2509 34.1381 30.2509 32.0148C30.2273 30.288 30.6707 28.587 31.5342 27.0915C32.4197 25.5715 33.7022 24.3213 35.2442 23.4748C36.8776 22.5648 38.8376 22.1215 41.1476 22.1215C41.3112 22.1196 41.4748 22.1274 41.6376 22.1448C41.8476 22.1681 42.0809 22.1681 42.3609 22.1915V14.8181C42.3609 14.6548 42.4309 14.5615 42.5942 14.5615H47.3309C47.3832 14.5544 47.4362 14.5673 47.4795 14.5975C47.5227 14.6278 47.553 14.6732 47.5642 14.7248V36.9848C47.5642 37.4048 47.5876 37.8715 47.6109 38.3848C47.6342 38.8981 47.6809 39.3415 47.7042 39.7381C47.7092 39.8169 47.6894 39.8953 47.6475 39.9623C47.6057 40.0292 47.5439 40.0814 47.4709 40.1115C46.2487 40.6251 44.9731 41.0008 43.6676 41.2315C42.4817 41.4453 41.2793 41.5546 40.0742 41.5581ZM42.3609 36.8915V26.6248C42.1531 26.5747 41.9428 26.5357 41.7309 26.5081C41.4742 26.4848 41.2176 26.4615 40.9609 26.4615C40.0463 26.4512 39.1424 26.6591 38.3242 27.0681C37.5269 27.4654 36.8442 28.0598 36.3409 28.7948C35.8276 29.5415 35.5709 30.5448 35.5709 31.7581C35.5506 32.5771 35.6851 33.3925 35.9676 34.1615C36.1932 34.7833 36.5515 35.3486 37.0176 35.8181C37.4674 36.2474 38.0104 36.5669 38.6042 36.7515C39.2292 36.9562 39.8832 37.0586 40.5409 37.0548C40.8909 37.0548 41.2176 37.0315 41.5209 37.0081C41.806 37.0285 42.0921 36.9887 42.3609 36.8915Z" fill="#FF61F6"/>
</g>
<defs>
<clipPath id="clip0_74_2365">
<rect width="56" height="56" fill="white" transform="translate(0.166016)"/>
</clipPath>
</defs>
</svg>
