<svg width="57" height="56" viewBox="0 0 57 56" fill="none" xmlns="http://www.w3.org/2000/svg">
<g clip-path="url(#clip0_74_2350)">
<path d="M10.2507 4.51369e-06H46.4173C47.7199 -0.0012547 49.01 0.260965 50.2137 0.771657C51.4174 1.28235 52.5111 2.03149 53.4322 2.9762C54.3533 3.92091 55.0837 5.04264 55.5816 6.2772C56.0795 7.51177 56.3352 8.83492 56.334 10.1709V45.8291C56.3352 47.1651 56.0795 48.4882 55.5816 49.7228C55.0837 50.9574 54.3533 52.0791 53.4322 53.0238C52.5111 53.9685 51.4174 54.7177 50.2137 55.2283C49.01 55.739 47.7199 56.0013 46.4173 56H10.2507C8.94803 56.0013 7.65796 55.739 6.45426 55.2283C5.25056 54.7177 4.15687 53.9685 3.23577 53.0238C2.31468 52.0791 1.58427 50.9574 1.08635 49.7228C0.588425 48.4882 0.332761 47.1651 0.333989 45.8291V10.1709C0.332761 8.83492 0.588425 7.51177 1.08635 6.2772C1.58427 5.04264 2.31468 3.92091 3.23577 2.9762C4.15687 2.03149 5.25056 1.28235 6.45426 0.771657C7.65796 0.260965 8.94803 -0.0012547 10.2507 4.51369e-06Z" fill="#000B1D"/>
<g clip-path="url(#clip1_74_2350)">
<path d="M43.6791 30.5477C42.1951 30.5555 40.9054 30.9163 39.8255 31.4496C39.4293 30.6575 39.033 29.9517 38.9631 29.4341C38.8854 28.8303 38.7922 28.4617 38.8854 27.7402C38.9787 27.0187 39.3982 25.9914 39.3904 25.913C39.3827 25.8346 39.2972 25.466 38.4426 25.4581C37.588 25.4503 36.8499 25.6228 36.7644 25.8502C36.679 26.0777 36.5158 26.5952 36.407 27.1285C36.2594 27.9127 34.6978 30.7124 33.8043 32.1789C33.5169 31.6064 33.2682 31.1045 33.2139 30.7045C33.1362 30.1007 33.0429 29.7321 33.1362 29.0106C33.2294 28.2892 33.6489 27.2618 33.6412 27.1834C33.6334 27.105 33.5479 26.7364 32.6933 26.7286C31.8387 26.7207 31.1006 26.8932 31.0152 27.1207C30.9297 27.3481 30.8365 27.8814 30.6578 28.3989C30.4791 28.9165 28.4047 33.5905 27.8608 34.7982C27.5812 35.4177 27.3403 35.9118 27.1694 36.249C27.1694 36.249 27.1616 36.2725 27.1383 36.3117C26.9907 36.6019 26.9052 36.7587 26.9052 36.7587C26.9052 36.7587 26.9052 36.7587 26.9052 36.7666C26.7887 36.9783 26.6644 37.1743 26.6022 37.1743C26.5556 37.1743 26.4701 36.6097 26.6178 35.8412C26.9285 34.2178 27.6666 31.6927 27.6588 31.6064C27.6588 31.5593 27.7987 31.1202 27.1772 30.8928C26.5711 30.6653 26.3536 31.0418 26.2992 31.0418C26.2448 31.0418 26.206 31.1751 26.206 31.1751C26.206 31.1751 26.8819 28.3362 24.9163 28.3362C23.6888 28.3362 21.9951 29.6929 21.156 30.9163C20.6277 31.2064 19.5011 31.826 18.2969 32.4926C17.8385 32.7514 17.3646 33.0101 16.9217 33.2533C16.8907 33.2219 16.8596 33.1827 16.8285 33.1513C14.4511 30.5869 10.0537 28.7754 10.2402 25.3327C10.3101 24.0779 10.7374 20.7842 18.6854 16.7847C25.2271 13.5302 30.4325 14.432 31.3337 16.4318C32.6234 19.2863 28.5445 24.5876 21.7853 25.3562C19.2059 25.6463 17.854 24.6425 17.5122 24.2661C17.1548 23.874 17.1004 23.8505 16.9683 23.9289C16.7508 24.0465 16.8907 24.3994 16.9683 24.6033C17.1703 25.1366 18.0017 26.0777 19.4079 26.5403C20.651 26.9481 23.6732 27.1756 27.3325 25.7483C31.4269 24.1485 34.6279 19.702 33.6878 15.9769C32.7477 12.197 26.5323 10.9501 20.651 13.0596C17.1548 14.3144 13.3634 16.2906 10.6364 18.8629C7.39662 21.9213 6.88385 24.5798 7.09362 25.6934C7.84724 29.6459 13.2469 32.2181 15.4067 34.1237C15.298 34.1865 15.197 34.2414 15.1115 34.2884C14.0316 34.8295 9.91386 37.0018 8.88832 39.2996C7.72293 41.9032 9.07478 43.7696 9.96824 44.0206C12.7419 44.7969 15.5932 43.401 17.1237 41.0954C18.6543 38.7898 18.4678 35.7941 17.7608 34.4217C17.753 34.4061 17.7453 34.3904 17.7297 34.3747C18.0094 34.21 18.2969 34.0375 18.5766 33.8728C19.1282 33.5434 19.672 33.2376 20.1382 32.9866C19.874 33.7159 19.6798 34.5864 19.5866 35.8412C19.47 37.3155 20.0683 39.229 20.853 39.9818C21.2026 40.3112 21.6144 40.3191 21.8785 40.3191C22.7953 40.3191 23.2071 39.5505 23.6654 38.6408C24.2248 37.5272 24.7298 36.2333 24.7298 36.2333C24.7298 36.2333 24.1005 39.7309 25.8098 39.7309C26.4313 39.7309 27.0606 38.9153 27.3403 38.4997C27.3403 38.5075 27.3403 38.5075 27.3403 38.5075C27.3403 38.5075 27.3558 38.484 27.3869 38.4291C27.4491 38.3271 27.4879 38.2644 27.4879 38.2644C27.4879 38.2644 27.4879 38.2566 27.4879 38.2487C27.7365 37.8096 28.2959 36.8136 29.1272 35.1589C30.1994 33.0258 31.2327 30.3595 31.2327 30.3595C31.2327 30.3595 31.3259 31.0104 31.6445 32.0926C31.8309 32.7278 32.2194 33.4258 32.5302 34.1002C32.2816 34.4531 32.1262 34.6492 32.1262 34.6492C32.1262 34.6492 32.1262 34.6492 32.1339 34.657C31.9319 34.9236 31.7144 35.2138 31.4735 35.4961C30.6267 36.5156 29.6167 37.6841 29.4769 38.0213C29.3137 38.4213 29.3525 38.7114 29.6633 38.9467C29.8886 39.1192 30.2926 39.1427 30.7044 39.1192C31.4658 39.0643 32.0019 38.8761 32.266 38.7585C32.6778 38.6095 33.1595 38.382 33.6101 38.0448C34.4414 37.4253 34.9464 36.5391 34.8998 35.3706C34.8765 34.7276 34.6667 34.0845 34.4103 33.4807C34.488 33.3709 34.5579 33.2611 34.6356 33.1513C35.9486 31.2143 36.9664 29.0891 36.9664 29.0891C36.9664 29.0891 37.0596 29.74 37.3782 30.8222C37.5336 31.3711 37.8521 31.9671 38.1318 32.5475C36.8965 33.5591 36.1351 34.7354 35.8632 35.504C35.3737 36.9312 35.7544 37.5743 36.477 37.7233C36.8033 37.7939 37.2694 37.637 37.6113 37.488C38.0463 37.3469 38.5591 37.1038 39.0486 36.743C39.8799 36.1235 40.6801 35.2609 40.6335 34.0924C40.6102 33.5591 40.4704 33.0337 40.2761 32.5239C41.325 32.0848 42.6768 31.8417 44.4016 32.0456C48.0998 32.4847 48.8301 34.8139 48.6902 35.7941C48.5504 36.7744 47.7735 37.3077 47.5171 37.4724C47.2607 37.637 47.1752 37.6919 47.1985 37.8096C47.2296 37.9821 47.3539 37.9742 47.5715 37.9429C47.8745 37.888 49.5138 37.1508 49.5837 35.3471C49.7002 33.0415 47.5248 30.5242 43.6791 30.5477ZM15.1503 40.2563C13.9228 41.6052 12.2136 42.1149 11.4755 41.6836C10.683 41.2209 10.9938 39.229 12.501 37.8017C13.4178 36.9312 14.5987 36.1235 15.3834 35.6294C15.5621 35.5196 15.8263 35.3628 16.1448 35.1667C16.1992 35.1354 16.2303 35.1197 16.2303 35.1197C16.2924 35.0805 16.3546 35.0413 16.4167 35.0021C16.9683 37.041 16.44 38.8369 15.1503 40.2563ZM24.085 34.1237C23.6577 35.1746 22.7642 37.8645 22.2204 37.7155C21.7542 37.59 21.4667 35.551 22.1271 33.5356C22.4612 32.5239 23.1682 31.3162 23.58 30.8457C24.2481 30.0929 24.9862 29.8419 25.1649 30.1478C25.3902 30.5477 24.3491 33.465 24.085 34.1237ZM31.458 37.6841C31.2793 37.7782 31.1084 37.8409 31.0307 37.7939C30.9763 37.7625 31.1084 37.637 31.1084 37.637C31.1084 37.637 32.0329 36.6332 32.3981 36.1784C32.6079 35.9118 32.8565 35.5981 33.1206 35.2452C33.1206 35.2765 33.1206 35.3158 33.1206 35.3471C33.1206 36.547 31.9708 37.3547 31.458 37.6841ZM37.1451 36.3744C37.013 36.2803 37.0363 35.9667 37.4792 34.9864C37.6501 34.6021 38.0541 33.9591 38.7456 33.3395C38.8233 33.5905 38.8777 33.8336 38.8699 34.061C38.8621 35.5745 37.79 36.1392 37.1451 36.3744Z" fill="#CD6799"/>
</g>
</g>
<defs>
<clipPath id="clip0_74_2350">
<rect width="56" height="56" fill="white" transform="translate(0.333984)"/>
</clipPath>
<clipPath id="clip1_74_2350">
<rect width="42.56" height="32.2" fill="white" transform="translate(7.05469 12.04)"/>
</clipPath>
</defs>
</svg>
