<svg width="61" height="61" viewBox="0 0 61 61" fill="none" xmlns="http://www.w3.org/2000/svg">
<g clip-path="url(#clip0_234_2224)">
<path d="M45.1 15.1003C41.29 11.4903 36.16 9.28027 30.5 9.28027C24.84 9.28027 19.71 11.4903 15.9 15.1003L0.5 30.5003L15.1 45.1003C15.1 45.1003 15.13 45.1303 15.14 45.1403L15.86 45.8603C15.86 45.8603 15.89 45.8903 15.9 45.9003C19.71 49.5103 24.84 51.7203 30.5 51.7203C36.16 51.7203 41.29 49.5103 45.1 45.9003C45.11 45.8903 45.13 45.8803 45.14 45.8603L45.86 45.1403C45.86 45.1403 45.89 45.1103 45.9 45.1003L60.5 30.5003L45.1 15.1003ZM30.5 50.5003C19.46 50.5003 10.5 41.5403 10.5 30.5003C10.5 19.4603 19.46 10.5003 30.5 10.5003C41.54 10.5003 50.5 19.4603 50.5 30.5003C50.5 41.5403 41.54 50.5003 30.5 50.5003Z" fill="#CECCF2"/>
<path d="M60.5 0.5V30.5L45.9 15.9C45.64 15.63 45.37 15.36 45.1 15.1C41.29 11.49 36.16 9.28 30.5 9.28C24.84 9.28 19.71 11.49 15.9 15.1C15.63 15.36 15.36 15.63 15.1 15.9L0.5 30.5V0.5H60.5Z" fill="#4536B2"/>
<path d="M60.5 30.5V60.5H0.5V30.5L15.1 45.1C15.1 45.1 15.13 45.13 15.14 45.14L15.86 45.86C15.86 45.86 15.89 45.89 15.9 45.9C19.71 49.51 24.84 51.72 30.5 51.72C36.16 51.72 41.29 49.51 45.1 45.9C45.11 45.89 45.13 45.88 45.14 45.86C45.38 45.62 45.62 45.38 45.86 45.14C45.87 45.13 45.89 45.11 45.9 45.1L60.5 30.5Z" fill="#4536B2"/>
<path d="M30.5 38C34.6421 38 38 34.6421 38 30.5C38 26.3579 34.6421 23 30.5 23C26.3579 23 23 26.3579 23 30.5C23 34.6421 26.3579 38 30.5 38Z" fill="#CECCF2"/>
<path d="M30.5 10.5C19.46 10.5 10.5 19.46 10.5 30.5C10.5 41.54 19.46 50.5 30.5 50.5C41.54 50.5 50.5 41.54 50.5 30.5C50.5 19.46 41.54 10.5 30.5 10.5ZM30.5 38C26.36 38 23 34.64 23 30.5C23 26.36 26.36 23 30.5 23C34.64 23 38 26.36 38 30.5C38 34.64 34.64 38 30.5 38Z" fill="#4536B2"/>
</g>
<defs>
<clipPath id="clip0_234_2224">
<rect width="60" height="60" fill="white" transform="translate(0.5 0.5)"/>
</clipPath>
</defs>
</svg>
