<svg width="57" height="56" viewBox="0 0 57 56" fill="none" xmlns="http://www.w3.org/2000/svg">
<g clip-path="url(#clip0_74_2356)">
<path d="M10.5827 4.51369e-06H46.7493C48.052 -0.0012547 49.342 0.260965 50.5457 0.771657C51.7494 1.28235 52.8431 2.03149 53.7642 2.9762C54.6853 3.92091 55.4157 5.04264 55.9137 6.2772C56.4116 7.51177 56.6672 8.83492 56.666 10.1709V45.8291C56.6672 47.1651 56.4116 48.4882 55.9137 49.7228C55.4157 50.9574 54.6853 52.0791 53.7642 53.0238C52.8431 53.9685 51.7494 54.7177 50.5457 55.2283C49.342 55.739 48.052 56.0013 46.7493 56H10.5827C9.28007 56.0013 7.98999 55.739 6.78629 55.2283C5.58259 54.7177 4.4889 53.9685 3.56781 53.0238C2.64671 52.0791 1.9163 50.9574 1.41838 49.7228C0.920456 48.4882 0.664792 47.1651 0.66602 45.8291V10.1709C0.664792 8.83492 0.920456 7.51177 1.41838 6.2772C1.9163 5.04264 2.64671 3.92091 3.56781 2.9762C4.4889 2.03149 5.58259 1.28235 6.78629 0.771657C7.98999 0.260965 9.28007 -0.0012547 10.5827 4.51369e-06Z" fill="url(#paint0_linear_74_2356)"/>
<g filter="url(#filter0_d_74_2356)">
<path d="M30.1839 42.8869C36.6503 42.8869 40.5469 39.7083 40.5469 34.4656C40.5469 30.5026 37.7666 27.6336 33.6382 27.1794V27.0143C36.6713 26.5189 39.0514 23.6912 39.0514 20.5332C39.0514 16.0336 35.5129 13.1025 30.1207 13.1025H17.9883V42.8869H30.1839ZM22.7064 16.8798H28.9833C32.3956 16.8798 34.3333 18.4072 34.3333 21.173C34.3333 24.1247 32.0796 25.7758 27.9934 25.7758H22.7064V16.8798ZM22.7064 39.1097V29.3055H28.9411C33.4065 29.3055 35.7234 30.9567 35.7234 34.1767C35.7234 37.3965 33.4698 39.1097 29.2149 39.1097H22.7064Z" fill="url(#paint1_linear_74_2356)"/>
<path d="M30.1839 42.8869C36.6503 42.8869 40.5469 39.7083 40.5469 34.4656C40.5469 30.5026 37.7666 27.6336 33.6382 27.1794V27.0143C36.6713 26.5189 39.0514 23.6912 39.0514 20.5332C39.0514 16.0336 35.5129 13.1025 30.1207 13.1025H17.9883V42.8869H30.1839ZM22.7064 16.8798H28.9833C32.3956 16.8798 34.3333 18.4072 34.3333 21.173C34.3333 24.1247 32.0796 25.7758 27.9934 25.7758H22.7064V16.8798ZM22.7064 39.1097V29.3055H28.9411C33.4065 29.3055 35.7234 30.9567 35.7234 34.1767C35.7234 37.3965 33.4698 39.1097 29.2149 39.1097H22.7064Z" stroke="white"/>
</g>
</g>
<defs>
<filter id="filter0_d_74_2356" x="1.48828" y="0.602539" width="55.5586" height="62.7842" filterUnits="userSpaceOnUse" color-interpolation-filters="sRGB">
<feFlood flood-opacity="0" result="BackgroundImageFix"/>
<feColorMatrix in="SourceAlpha" type="matrix" values="0 0 0 0 0 0 0 0 0 0 0 0 0 0 0 0 0 0 127 0" result="hardAlpha"/>
<feOffset dy="4"/>
<feGaussianBlur stdDeviation="8"/>
<feColorMatrix type="matrix" values="0 0 0 0 0 0 0 0 0 0 0 0 0 0 0 0 0 0 0.15 0"/>
<feBlend mode="normal" in2="BackgroundImageFix" result="effect1_dropShadow_74_2356"/>
<feBlend mode="normal" in="SourceGraphic" in2="effect1_dropShadow_74_2356" result="shape"/>
</filter>
<linearGradient id="paint0_linear_74_2356" x1="8.98716" y1="1.48208" x2="65.9597" y2="37.5206" gradientUnits="userSpaceOnUse">
<stop stop-color="#9013FE"/>
<stop offset="1" stop-color="#6610F2"/>
</linearGradient>
<linearGradient id="paint1_linear_74_2356" x1="20.1221" y1="15.063" x2="33.8742" y2="38.23" gradientUnits="userSpaceOnUse">
<stop stop-color="white"/>
<stop offset="1" stop-color="#F1E5FC"/>
</linearGradient>
<clipPath id="clip0_74_2356">
<rect width="56" height="56" fill="white" transform="translate(0.666016)"/>
</clipPath>
</defs>
</svg>
