<svg width="56" height="56" viewBox="0 0 56 56" fill="none" xmlns="http://www.w3.org/2000/svg">
<g clip-path="url(#clip0_234_2278)">
<path d="M9.91667 4.51369e-06H46.0833C47.386 -0.0012547 48.676 0.260965 49.8797 0.771657C51.0834 1.28235 52.1771 2.03149 53.0982 2.9762C54.0193 3.92091 54.7497 5.04264 55.2476 6.2772C55.7456 7.51177 56.0012 8.83492 56 10.1709V45.8291C56.0012 47.1651 55.7456 48.4882 55.2476 49.7228C54.7497 50.9574 54.0193 52.0791 53.0982 53.0238C52.1771 53.9685 51.0834 54.7177 49.8797 55.2283C48.676 55.739 47.386 56.0013 46.0833 56H9.91667C8.61405 56.0013 7.32397 55.739 6.12027 55.2283C4.91657 54.7177 3.82288 53.9685 2.90179 53.0238C1.9807 52.0791 1.25029 50.9574 0.752365 49.7228C0.254441 48.4882 -0.00122333 47.1651 4.40084e-06 45.8291V10.1709C-0.00122333 8.83492 0.254441 7.51177 0.752365 6.2772C1.25029 5.04264 1.9807 3.92091 2.90179 2.9762C3.82288 2.03149 4.91657 1.28235 6.12027 0.771657C7.32397 0.260965 8.61405 -0.0012547 9.91667 4.51369e-06Z" fill="#4536B2"/>
<g clip-path="url(#clip1_234_2278)">
<path d="M28.0006 31.7023C30.1508 31.7023 31.8939 29.9818 31.8939 27.8594C31.8939 25.7371 30.1508 24.0166 28.0006 24.0166C25.8505 24.0166 24.1074 25.7371 24.1074 27.8594C24.1074 29.9818 25.8505 31.7023 28.0006 31.7023Z" fill="white"/>
<path fill-rule="evenodd" clip-rule="evenodd" d="M9.36164 25.4624C8.41703 26.3041 8.0202 27.1159 8.0202 27.8602C8.0202 28.6046 8.41703 29.4164 9.36164 30.2581C10.3062 31.0997 11.724 31.8988 13.5535 32.5883C17.2061 33.9649 22.3137 34.8352 28.0006 34.8352C33.6875 34.8352 38.7951 33.9649 42.4478 32.5883C44.2773 31.8988 45.6951 31.0997 46.6396 30.2581C47.5842 29.4164 47.9811 28.6046 47.9811 27.8602C47.9811 27.1159 47.5842 26.3041 46.6396 25.4624C45.6951 24.6208 44.2773 23.8217 42.4478 23.1322C38.7951 21.7556 33.6875 20.8853 28.0006 20.8853C22.3137 20.8853 17.2061 21.7556 13.5535 23.1322C11.724 23.8217 10.3062 24.6208 9.36164 25.4624ZM12.9043 21.4539C16.8124 19.981 22.1501 19.0889 28.0006 19.0889C33.8512 19.0889 39.1888 19.981 43.097 21.4539C45.048 22.1892 46.6895 23.0867 47.8592 24.1289C49.0288 25.1711 49.8011 26.4305 49.8011 27.8602C49.8011 29.29 49.0288 30.5494 47.8592 31.5916C46.6895 32.6338 45.048 33.5313 43.097 34.2665C39.1888 35.7394 33.8512 36.6316 28.0006 36.6316C22.1501 36.6316 16.8124 35.7394 12.9043 34.2665C10.9533 33.5313 9.31181 32.6338 8.1421 31.5916C6.97248 30.5494 6.2002 29.29 6.2002 27.8602C6.2002 26.4305 6.97248 25.1711 8.1421 24.1289C9.31181 23.0867 10.9533 22.1892 12.9043 21.4539Z" fill="white"/>
<path fill-rule="evenodd" clip-rule="evenodd" d="M20.7846 10.7281C19.5738 10.3415 18.6632 10.4082 18.0101 10.7803C17.357 11.1525 16.8432 11.8976 16.577 13.1259C16.3109 14.3541 16.3187 15.9657 16.6285 17.8743C17.247 21.685 19.0372 26.4862 21.8807 31.3475C24.7241 36.2088 28.0415 40.1397 31.0756 42.5738C32.5953 43.7929 34.0053 44.6053 35.216 44.9919C36.4268 45.3786 37.3375 45.3119 37.9905 44.9397C38.6436 44.5675 39.1574 43.8224 39.4236 42.5941C39.6898 41.3659 39.6819 39.7543 39.3721 37.8457C38.7536 34.035 36.9634 29.2338 34.1199 24.3726C31.2765 19.5113 27.9591 15.5803 24.925 13.1463C23.4053 11.9271 21.9953 11.1147 20.7846 10.7281ZM26.0729 11.7522C29.3192 14.3565 32.7708 18.4731 35.6961 23.4743C38.6214 28.4755 40.5074 33.4843 41.1692 37.5615C41.4996 39.5969 41.533 41.4488 41.2034 42.9698C40.8738 44.4907 40.155 45.7806 38.9005 46.4955C37.6461 47.2104 36.155 47.1799 34.6558 46.7012C33.1565 46.2224 31.5483 45.2679 29.9278 43.9678C26.6814 41.3635 23.2298 37.2469 20.3045 32.2457C17.3792 27.2445 15.4932 22.2357 14.8314 18.1585C14.501 16.1231 14.4677 14.2712 14.7973 12.7502C15.1268 11.2293 15.8457 9.93944 17.1001 9.22455C18.3545 8.50967 19.8456 8.54014 21.3448 9.01887C22.8441 9.49763 24.4523 10.4521 26.0729 11.7522Z" fill="white"/>
<path fill-rule="evenodd" clip-rule="evenodd" d="M39.424 13.1261C39.1578 11.8977 38.644 11.1526 37.9909 10.7804C37.3378 10.4083 36.4271 10.3416 35.2163 10.7282C34.0057 11.1148 32.5957 11.9273 31.076 13.1464C28.0418 15.5805 24.7245 19.5114 21.881 24.3727C19.0376 29.2339 17.2474 34.0352 16.6288 37.8459C16.319 39.7545 16.3112 41.366 16.5774 42.5942C16.8435 43.8225 17.3574 44.5676 18.0104 44.9398C18.6635 45.312 19.5742 45.3787 20.785 44.992C21.9956 44.6054 23.4057 43.793 24.9253 42.5739C27.9595 40.1398 31.2768 36.2089 34.1203 31.3476C36.9637 26.4863 38.754 21.6851 39.3725 17.8744C39.6823 15.9658 39.6901 14.3542 39.424 13.1261ZM41.1696 18.1586C40.5078 22.2358 38.6217 27.2446 35.6965 32.2458C32.7712 37.247 29.3196 41.3636 26.0732 43.968C24.4526 45.268 22.8445 46.2225 21.3452 46.7013C19.846 47.18 18.3549 47.2105 17.1004 46.4956C15.846 45.7807 15.1272 44.4908 14.7976 42.9699C14.468 41.4489 14.5014 39.597 14.8317 37.5617C15.4935 33.4844 17.3796 28.4756 20.3049 23.4744C23.2301 18.4733 26.6817 14.3566 29.9281 11.7523C31.5487 10.4522 33.1568 9.49774 34.6561 9.01898C36.1553 8.54026 37.6464 8.50978 38.9009 9.22466C40.1553 9.93955 40.8741 11.2294 41.2037 12.7503C41.5333 14.2713 41.4999 16.1232 41.1696 18.1586Z" fill="white"/>
</g>
</g>
<defs>
<clipPath id="clip0_234_2278">
<rect width="56" height="56" fill="white"/>
</clipPath>
<clipPath id="clip1_234_2278">
<rect width="43.68" height="38.36" fill="white" transform="translate(6.16016 8.67969)"/>
</clipPath>
</defs>
</svg>
