<svg width="57" height="56" viewBox="0 0 57 56" fill="none" xmlns="http://www.w3.org/2000/svg">
<path d="M46.7 0H10.3C4.88761 0 0.5 4.38761 0.5 9.8V46.2C0.5 51.6124 4.88761 56 10.3 56H46.7C52.1124 56 56.5 51.6124 56.5 46.2V9.8C56.5 4.38761 52.1124 0 46.7 0Z" fill="#001E36"/>
<path d="M13.0996 39.7019V16.0068C13.0996 15.8372 13.1845 15.7524 13.3544 15.7524C15.1986 15.7039 17.5402 15.6797 20.3792 15.6797C23.7279 15.6797 26.1787 16.4308 27.7316 17.9329C29.3089 19.435 30.0975 21.2885 30.0975 23.4933C30.0975 26.231 29.1269 28.2662 27.1857 29.5987C25.2444 30.9313 22.8058 31.5976 19.8697 31.5976H17.7222V39.6655C17.7222 39.8594 17.6251 39.9563 17.431 39.9563H13.3908C13.1967 39.9563 13.0996 39.8715 13.0996 39.7019ZM17.7222 19.1685V28.1087C18.0619 28.1572 18.8505 28.1814 20.088 28.1814C21.7138 28.1814 23.0242 27.8301 24.019 27.1275C25.0382 26.4006 25.5478 25.2256 25.5478 23.6023C25.5478 22.1728 25.0989 21.0704 24.201 20.2951C23.3275 19.5198 22.0535 19.1322 20.3792 19.1322C19.9667 19.1322 19.5542 19.1443 19.1417 19.1685C18.7534 19.1685 18.4259 19.1685 18.1589 19.1685C17.9163 19.1685 17.7707 19.1685 17.7222 19.1685Z" fill="#31A8FE"/>
<path d="M42.7965 26.437C41.4376 25.589 40.0181 25.165 38.5379 25.165C37.6886 25.165 37.0577 25.3225 36.6452 25.6374C36.257 25.9524 36.0628 26.3279 36.0628 26.7641C36.0628 27.2002 36.2327 27.5878 36.5724 27.927C36.9121 28.242 37.628 28.6175 38.7199 29.0536C40.7339 29.8289 42.1413 30.6527 42.9421 31.5249C43.7671 32.3729 44.1796 33.4752 44.1796 34.832C44.1796 36.4795 43.5487 37.8121 42.2869 38.8297C41.0494 39.823 39.3629 40.3197 37.2276 40.3197C35.0922 40.3197 33.3451 39.932 31.9862 39.1567C31.8407 39.1083 31.7679 38.9871 31.7679 38.7933V35.4135C31.7679 35.3166 31.7921 35.256 31.8407 35.2318C31.9135 35.1833 31.9741 35.1833 32.0226 35.2318C33.5999 36.3947 35.2863 36.9762 37.082 36.9762C37.9313 36.9762 38.5743 36.8308 39.0111 36.5401C39.4721 36.2251 39.7026 35.8254 39.7026 35.3408C39.7026 34.832 39.5207 34.408 39.1567 34.0688C38.7927 33.7054 38.0769 33.3178 37.0092 32.9059C35.068 32.1548 33.7091 31.3553 32.9326 30.5073C32.1804 29.6351 31.8043 28.5448 31.8043 27.2365C31.8043 25.7344 32.3745 24.4745 33.515 23.4569C34.6554 22.4393 36.2812 21.9305 38.3923 21.9305C40.3578 21.9305 41.8744 22.1971 42.9421 22.7301C43.0634 22.8028 43.1241 22.9602 43.1241 23.2025V26.2189C43.1241 26.5097 43.0149 26.5823 42.7965 26.437Z" fill="#31A8FE"/>
</svg>
