<svg width="56" height="56" viewBox="0 0 56 56" fill="none" xmlns="http://www.w3.org/2000/svg">
<g clip-path="url(#clip0_74_2362)">
<path d="M9.91667 4.51369e-06H46.0833C47.386 -0.0012547 48.676 0.260965 49.8797 0.771657C51.0834 1.28235 52.1771 2.03149 53.0982 2.9762C54.0193 3.92091 54.7497 5.04264 55.2476 6.2772C55.7456 7.51177 56.0012 8.83492 56 10.1709V45.8291C56.0012 47.1651 55.7456 48.4882 55.2476 49.7228C54.7497 50.9574 54.0193 52.0791 53.0982 53.0238C52.1771 53.9685 51.0834 54.7177 49.8797 55.2283C48.676 55.739 47.386 56.0013 46.0833 56H9.91667C8.61405 56.0013 7.32397 55.739 6.12027 55.2283C4.91657 54.7177 3.82288 53.9685 2.90179 53.0238C1.9807 52.0791 1.25029 50.9574 0.752365 49.7228C0.254441 48.4882 -0.00122333 47.1651 4.40084e-06 45.8291V10.1709C-0.00122333 8.83492 0.254441 7.51177 0.752365 6.2772C1.25029 5.04264 1.9807 3.92091 2.90179 2.9762C3.82288 2.03149 4.91657 1.28235 6.12027 0.771657C7.32397 0.260965 8.61405 -0.0012547 9.91667 4.51369e-06Z" fill="#000B1D"/>
<path d="M22.6322 45.0798C25.8538 45.0798 28.4655 42.4681 28.4655 39.2464V33.4131H22.6322C19.4105 33.4131 16.7988 36.0248 16.7988 39.2464C16.7988 42.4681 19.4105 45.0798 22.6322 45.0798Z" fill="#0ACF83"/>
<path d="M16.7988 27.5804C16.7988 24.3587 19.4105 21.7471 22.6322 21.7471H28.4655V33.4137H22.6322C19.4105 33.4137 16.7988 30.8021 16.7988 27.5804Z" fill="#A259FF"/>
<path d="M16.7988 15.9134C16.7988 12.6917 19.4105 10.0801 22.6322 10.0801H28.4655V21.7467H22.6322C19.4105 21.7467 16.7988 19.1351 16.7988 15.9134Z" fill="#F24E1E"/>
<path d="M28.4648 10.0801H34.2982C37.5198 10.0801 40.1315 12.6917 40.1315 15.9134C40.1315 19.1351 37.5198 21.7467 34.2982 21.7467H28.4648V10.0801Z" fill="#FF7262"/>
<path d="M40.1315 27.5804C40.1315 30.8021 37.5198 33.4137 34.2982 33.4137C31.0765 33.4137 28.4648 30.8021 28.4648 27.5804C28.4648 24.3587 31.0765 21.7471 34.2982 21.7471C37.5198 21.7471 40.1315 24.3587 40.1315 27.5804Z" fill="#1ABCFE"/>
</g>
<defs>
<clipPath id="clip0_74_2362">
<rect width="56" height="56" fill="white"/>
</clipPath>
</defs>
</svg>
