<svg width="57" height="56" viewBox="0 0 57 56" fill="none" xmlns="http://www.w3.org/2000/svg">
<path d="M46.867 0H10.467C5.0546 0 0.666992 4.38761 0.666992 9.8V46.2C0.666992 51.6124 5.0546 56 10.467 56H46.867C52.2794 56 56.667 51.6124 56.667 46.2V9.8C56.667 4.38761 52.2794 0 46.867 0Z" fill="#4536B2"/>
<path d="M13.2666 39.7019V16.0068C13.2666 15.8372 13.3515 15.7524 13.5214 15.7524C15.3656 15.7039 17.7072 15.6797 20.5462 15.6797C23.8948 15.6797 26.3457 16.4308 27.8986 17.9329C29.4759 19.435 30.2645 21.2885 30.2645 23.4933C30.2645 26.231 29.2939 28.2662 27.3527 29.5987C25.4114 30.9313 22.9728 31.5976 20.0366 31.5976H17.8892V39.6655C17.8892 39.8594 17.7921 39.9563 17.598 39.9563H13.5578C13.3637 39.9563 13.2666 39.8715 13.2666 39.7019ZM17.8892 19.1685V28.1087C18.2289 28.1572 19.0175 28.1814 20.255 28.1814C21.8808 28.1814 23.1912 27.8301 24.186 27.1275C25.2052 26.4006 25.7148 25.2256 25.7148 23.6023C25.7148 22.1728 25.2658 21.0704 24.368 20.2951C23.4945 19.5198 22.2205 19.1322 20.5462 19.1322C20.1337 19.1322 19.7212 19.1443 19.3087 19.1685C18.9204 19.1685 18.5929 19.1685 18.3259 19.1685C18.0833 19.1685 17.9377 19.1685 17.8892 19.1685Z" fill="white"/>
<path d="M42.9635 26.437C41.6046 25.589 40.1851 25.165 38.7049 25.165C37.8556 25.165 37.2247 25.3225 36.8122 25.6374C36.424 25.9524 36.2298 26.3279 36.2298 26.7641C36.2298 27.2002 36.3997 27.5878 36.7394 27.927C37.0791 28.242 37.7949 28.6175 38.8869 29.0536C40.9009 29.8289 42.3083 30.6527 43.1091 31.5249C43.9341 32.3729 44.3466 33.4752 44.3466 34.832C44.3466 36.4795 43.7157 37.8121 42.4539 38.8297C41.2164 39.823 39.5299 40.3197 37.3946 40.3197C35.2592 40.3197 33.5121 39.932 32.1532 39.1567C32.0076 39.1083 31.9349 38.9871 31.9349 38.7933V35.4135C31.9349 35.3166 31.9591 35.256 32.0076 35.2318C32.0804 35.1833 32.1411 35.1833 32.1896 35.2318C33.7669 36.3947 35.4533 36.9762 37.249 36.9762C38.0983 36.9762 38.7413 36.8308 39.1781 36.5401C39.6391 36.2251 39.8696 35.8254 39.8696 35.3408C39.8696 34.832 39.6876 34.408 39.3237 34.0688C38.9597 33.7054 38.2439 33.3178 37.1762 32.9059C35.2349 32.1548 33.8761 31.3553 33.0996 30.5073C32.3474 29.6351 31.9712 28.5448 31.9712 27.2365C31.9712 25.7344 32.5415 24.4745 33.682 23.4569C34.8224 22.4393 36.4482 21.9305 38.5593 21.9305C40.5248 21.9305 42.0414 22.1971 43.1091 22.7301C43.2304 22.8028 43.2911 22.9602 43.2911 23.2025V26.2189C43.2911 26.5097 43.1819 26.5823 42.9635 26.437Z" fill="white"/>
</svg>
