<svg width="60" height="61" viewBox="0 0 60 61" fill="none" xmlns="http://www.w3.org/2000/svg">
<path d="M4.29492 14.7646C4.83724 24.1218 13.3676 29.7681 29.6729 31.5605C29.7808 31.5861 29.8908 31.5984 30.001 31.5977C50.6315 33.8209 53.1031 41.1935 53.125 46.5811V46.709C53.1165 48.2535 52.7508 49.7436 52.0781 51.1465C46.5955 57.2032 38.7346 61 30 61C13.4315 61 4.64084e-07 47.3447 0 30.5C0 24.7432 1.5683 19.3587 4.29492 14.7646ZM55.875 15.0586C58.4957 19.5879 60 24.8651 60 30.5C60 36.1343 58.4952 41.4105 55.875 45.9395V15.0586ZM50.585 13.5479C51.2665 12.9367 52.0118 13.1921 52.2227 13.2881C52.4332 13.384 53.125 13.7582 53.125 14.6758V38.0068C52.1709 36.7416 50.9697 35.6054 49.5244 34.6025C45.7914 32.0178 40.4177 30.2527 33.1533 29.2285L50.585 13.5479ZM30 0C39.0713 2.78334e-07 47.202 4.09353 52.7031 10.5625C51.3132 10.1878 49.8473 10.528 48.7451 11.5166L29.9814 28.3936L11.4697 12.0459C10.3259 11.0363 8.7901 10.7186 7.36426 11.1719C7.46568 10.7969 7.58824 10.4265 7.73145 10.0615C13.2216 3.88266 21.1649 0 30 0ZM8.01367 13.8496C8.22416 13.7538 8.96564 13.4934 9.64746 14.0957L25.6631 28.2383C13.9472 26.2507 7.84424 21.8774 7.09375 15.2324H7.11719C7.11728 14.3246 7.80276 13.9457 8.01367 13.8496Z" fill="black"/>
</svg>
